<?xml version="1.0" encoding="UTF-8" standalone="no"?>
<svg width="5px" height="18px" viewBox="0 0 5 18" version="1.1" xmlns="http://www.w3.org/2000/svg" xmlns:xlink="http://www.w3.org/1999/xlink" xmlns:sketch="http://www.bohemiancoding.com/sketch/ns">
    <!-- Generator: Sketch 3.3.2 (12043) - http://www.bohemiancoding.com/sketch -->
    <title>chevron</title>
    <desc>Created with Sketch.</desc>
    <defs></defs>
    <g id="ASDA.com---All-sizes" stroke="none" stroke-width="1" fill="none" fill-rule="evenodd" sketch:type="MSPage">
        <g id="chevron" sketch:type="MSArtboardGroup">
            <path d="M4.61466783,7.74549895 C4.95423225,7.40577772 4.95423225,6.85503513 4.61466783,6.51577769 L2.09894639,3.99986956 L4.6142041,1.48442522 C4.95376853,1.14470399 4.95376853,0.593961397 4.6142041,0.254703958 C4.27452374,-0.0849013192 3.72384739,-0.0849013192 3.38463075,0.254703958 L0.25447044,3.38524082 C0.0914702403,3.54826063 0,3.76936929 0,3.99986956 C0,4.23036983 0.0914702403,4.45182633 0.25447044,4.61496208 L3.38509448,7.74549895 C3.55447093,7.91489578 3.77729198,8 3.99964929,8 C4.22247033,8 4.44482765,7.91489578 4.61466783,7.74549895 Z" id="Fill-1-Copy" fill="#222222" sketch:type="MSShapeGroup" transform="translate(2.434671, 4.000000) scale(-1, 1) translate(-2.434671, -4.000000) "></path>
            <path d="M4.61466783,17.7454989 C4.95423225,17.4057777 4.95423225,16.8550351 4.61466783,16.5157777 L2.09894639,13.9998696 L4.6142041,11.4844252 C4.95376853,11.144704 4.95376853,10.5939614 4.6142041,10.254704 C4.27452374,9.91509868 3.72384739,9.91509868 3.38463075,10.254704 L0.25447044,13.3852408 C0.0914702403,13.5482606 0,13.7693693 0,13.9998696 C0,14.2303698 0.0914702403,14.4518263 0.25447044,14.6149621 L3.38509448,17.7454989 C3.55447093,17.9148958 3.77729198,18 3.99964929,18 C4.22247033,18 4.44482765,17.9148958 4.61466783,17.7454989 Z" id="Fill-1-Copy-2" fill="#FFFFFF" sketch:type="MSShapeGroup" transform="translate(2.434671, 14.000000) scale(-1, 1) translate(-2.434671, -14.000000) "></path>
        </g>
    </g>
</svg>