<?xml version="1.0" encoding="UTF-8" standalone="no"?>
<svg width="60px" height="41px" viewBox="0 0 60 41" version="1.1" xmlns="http://www.w3.org/2000/svg" xmlns:xlink="http://www.w3.org/1999/xlink" xmlns:sketch="http://www.bohemiancoding.com/sketch/ns">
    <!-- Generator: Sketch 3.3.1 (12002) - http://www.bohemiancoding.com/sketch -->
    <title>george-title</title>
    <desc>Created with Sketch.</desc>
    <defs></defs>
    <g id="ASDA.com---All-sizes" stroke="none" stroke-width="1" fill="none" fill-rule="evenodd" sketch:type="MSPage">
        <g id="george-title" sketch:type="MSArtboardGroup">
            <g id="George" sketch:type="MSLayerGroup">
                <path d="M9.93665158,1.05882353 C9.04072398,0.407239819 7.92760181,0.0814479638 6.59728507,0.0814479638 C4.7239819,0.0814479638 3.14932127,0.733031674 1.90045249,2.00904977 C0.705882353,3.23076923 0.108597285,4.69683258 0.108597285,6.43438914 C0.108597285,8.06334842 0.65158371,9.39366516 1.76470588,10.4253394 C3.01357466,11.6199095 4.56108597,12.1900452 6.35294118,12.1900452 C8.00904977,12.1900452 9.33936652,11.7013575 10.3167421,10.7239819 C10.8868778,10.1538462 11.1855204,9.47511312 11.2126697,8.71493213 L11.239819,6.62443439 L7.57466063,6.62443439 L7.57466063,7.38461538 L8.30769231,7.38461538 C9.23076923,7.38461538 9.71945701,7.57466063 9.71945701,8.22624434 L9.71945701,8.71493213 C9.71945701,9.55656109 9.39366516,10.0723982 8.74208145,10.5339367 C8.14479638,10.9683258 7.57466063,11.1855204 6.65158371,11.1855204 C5.91855204,11.1855204 5.26696833,11.0226244 4.66968326,10.7239819 C3.25791855,10.0180995 2.57918552,8.63348416 2.57918552,6.13574661 C2.57918552,4.66968326 2.85067873,3.61085973 3.36651584,2.68778281 C4.04524887,1.49321267 5.13122172,0.895927602 6.59728507,0.895927602 C7.71040724,0.895927602 8.63348416,1.19457014 9.39366516,1.81900452 L9.93665158,1.05882353 L9.93665158,1.05882353 Z" id="Shape" fill="#1C1C1B" sketch:type="MSShapeGroup"></path>
                <g id="Group" transform="translate(12.488688, 1.085973)" sketch:type="MSShapeGroup">
                    <path d="M7.05882353,5.51131222 C7.08597285,3.23076923 6.35294118,2.11764706 4.83257919,2.11764706 C3.20361991,2.11764706 2.36199095,3.25791855 2.25339367,5.51131222 L7.05882353,5.51131222 L7.05882353,5.51131222 Z M7.87330317,10.0723982 C7.11312217,10.7511312 6.13574661,11.0769231 4.91402715,11.0769231 C3.50226244,11.0769231 2.36199095,10.6696833 1.49321267,9.85520362 C0.597285068,9.01357466 0.135746606,7.90045249 0.135746606,6.5158371 C0.135746606,4.94117647 0.570135747,3.66515837 1.41176471,2.74208145 C2.25339367,1.7918552 3.4479638,1.33031674 5.02262443,1.33031674 C6.32579186,1.33031674 7.33031674,1.87330317 8.09049774,2.9321267 C8.71493213,3.8280543 9.09502262,4.96832579 9.14932127,6.35294118 L2.28054299,6.35294118 L2.28054299,6.62443439 C2.28054299,7.62895928 2.52488688,8.44343891 3.04072398,9.0678733 C3.58371041,9.74660633 4.3438914,10.0995475 5.29411765,10.0995475 C6.13574661,10.0995475 6.84162896,9.85520362 7.38461538,9.39366516 L7.87330317,10.0723982 L7.87330317,10.0723982 Z" id="Shape" fill="#1C1C1B"></path>
                    <path d="M14.8235294,10.3167421 C16.4253394,10.3167421 17.2126697,8.95927602 17.2126697,6.21719457 C17.2126697,3.50226244 16.4253394,2.14479638 14.8235294,2.14479638 C13.2217195,2.14479638 12.4343891,3.50226244 12.4343891,6.21719457 C12.4343891,8.9321267 13.2217195,10.3167421 14.8235294,10.3167421 M11.4841629,2.74208145 C12.3257919,1.7918552 13.4117647,1.33031674 14.7963801,1.33031674 C16.1809955,1.33031674 17.2941176,1.7918552 18.1085973,2.74208145 C18.8959276,3.63800905 19.3031674,4.77828054 19.3031674,6.19004525 C19.3031674,7.60180995 18.8959276,8.76923077 18.1085973,9.63800905 C17.2669683,10.5882353 16.1809955,11.0497738 14.7963801,11.0497738 C13.4117647,11.0497738 12.2986425,10.5882353 11.4841629,9.63800905 C10.6968326,8.74208145 10.2895928,7.60180995 10.2895928,6.19004525 C10.2895928,4.77828054 10.6968326,3.63800905 11.4841629,2.74208145" id="Shape" fill="#1C1C1B"></path>
                    <path d="M21.4208145,9.20361991 C21.4208145,9.61085973 21.3393665,9.88235294 21.1493213,10.0180995 C20.959276,10.1538462 20.6606335,10.2352941 20.2533937,10.2352941 L20.1447964,10.2352941 L20.1447964,11.0769231 L24.9230769,11.0769231 L24.9230769,10.2352941 L24.7058824,10.2352941 C24.3257919,10.2352941 24.0542986,10.2081448 23.8914027,10.1538462 C23.5927602,10.0723982 23.4570136,9.85520362 23.4570136,9.55656109 L23.4570136,7.46606335 C23.4570136,6.29864253 23.6742081,5.15837104 24.1085973,4.09954751 C24.678733,2.71493213 25.438914,2.00904977 26.4705882,2.00904977 L26.4977376,2.00904977 L26.4977376,2.0361991 C26.1447964,2.25339367 25.9819005,2.57918552 25.9819005,2.95927602 C25.9819005,3.28506787 26.0904977,3.55656109 26.3348416,3.77375566 C26.5791855,3.99095023 26.8506787,4.07239819 27.2036199,4.07239819 C28.0723982,4.07239819 28.5339367,3.61085973 28.5339367,2.66063348 C28.5339367,2.1719457 28.3710407,1.7918552 28.0180995,1.49321267 C27.6651584,1.19457014 27.2579186,1.05882353 26.7963801,1.05882353 C25.9004525,1.05882353 25.1402715,1.38461538 24.5158371,2.0361991 C24.0271493,2.5520362 23.7013575,3.14932127 23.5113122,3.85520362 L23.4841629,3.85520362 L23.4841629,1.38461538 L21.4751131,1.38461538 L21.4751131,9.20361991 L21.4208145,9.20361991 Z" id="Shape" fill="#1C1C1B"></path>
                    <path d="M34.8597285,1.98190045 C34.8597285,1.98190045 36.1085973,-0.271493213 37.6289593,0.162895928 C39.1493213,0.597285068 38.2262443,1.84615385 37.438914,1.98190045 C36.1357466,2.19909502 36.6515837,0.325791855 35.5656109,1.68325792 C34.5067873,3.04072398 34.8597285,1.98190045 34.8597285,1.98190045" id="Shape" fill="#FFDD00"></path>
                    <path d="M34.8597285,3.14932127 C34.4524887,2.44343891 33.8552036,2.09049774 33.1221719,2.09049774 C32.3891403,2.09049774 31.8190045,2.44343891 31.3846154,3.17647059 C31.0588235,3.77375566 30.8687783,4.47963801 30.8687783,5.26696833 C30.8687783,6.05429864 31.0316742,6.760181 31.3846154,7.35746606 C31.7918552,8.06334842 32.361991,8.41628959 33.0950226,8.41628959 C33.8280543,8.41628959 34.39819,8.06334842 34.8325792,7.35746606 C35.1855204,6.760181 35.3484163,6.05429864 35.3484163,5.26696833 C35.4027149,4.45248869 35.2126697,3.74660633 34.8597285,3.14932127 M36.1085973,8.09049774 C35.2669683,8.79638009 34.2081448,9.14932127 32.9864253,9.14932127 C31.0316742,9.14932127 30.081448,9.4479638 30.081448,10.0723982 C30.081448,10.6968326 30.5429864,11.0226244 31.438914,11.0226244 L34.8868778,11.0226244 C37.1945701,11.0226244 38.361991,11.8099548 38.361991,13.3846154 C38.361991,14.6063348 37.7918552,15.5022624 36.678733,16.0995475 L36.1085973,15.3122172 C36.6515837,14.959276 36.8959276,14.5520362 36.8959276,14.0904977 C36.8959276,13.0316742 35.8914027,12.5701357 33.9095023,12.678733 C33.040724,12.7058824 32.3076923,12.7330317 31.7375566,12.7330317 C31.0045249,12.7330317 30.5429864,12.7058824 30.3257919,12.6244344 C29.1855204,12.4072398 28.6425339,11.7556561 28.6425339,10.6968326 C28.6425339,9.61085973 29.3755656,8.9321267 30.841629,8.60633484 L30.841629,8.57918552 C30.2171946,8.33484163 29.7013575,7.87330317 29.3755656,7.16742081 C29.0769231,6.57013575 28.9140271,5.89140271 28.9140271,5.15837104 C28.9140271,4.04524887 29.3755656,3.09502262 30.2714932,2.30769231 C31.1402715,1.57466063 32.1176471,1.22171946 33.2579186,1.22171946 C34.39819,1.22171946 35.3755656,1.60180995 36.2443439,2.36199095 C37.1131222,3.12217195 37.520362,4.04524887 37.520362,5.15837104 C37.4660633,6.3800905 37.0045249,7.35746606 36.1085973,8.09049774" id="Shape" fill="#1C1C1B"></path>
                    <path d="M45.2307692,5.51131222 C45.2579186,3.23076923 44.5248869,2.11764706 43.0045249,2.11764706 C41.3755656,2.11764706 40.5339367,3.25791855 40.4253394,5.51131222 L45.2307692,5.51131222 L45.2307692,5.51131222 Z M46.0452489,10.0452489 C45.2850679,10.7239819 44.3076923,11.0497738 43.0859729,11.0497738 C41.6742081,11.0497738 40.5339367,10.6425339 39.6651584,9.8280543 C38.7692308,8.98642534 38.3076923,7.87330317 38.3076923,6.48868778 C38.3076923,4.91402715 38.7420814,3.63800905 39.5837104,2.71493213 C40.4253394,1.76470588 41.6199095,1.30316742 43.1945701,1.30316742 C44.4977376,1.30316742 45.5022624,1.84615385 46.2624434,2.90497738 C46.8868778,3.80090498 47.2669683,4.94117647 47.321267,6.32579186 L40.4253394,6.32579186 L40.4253394,6.59728507 C40.4253394,7.60180995 40.6696833,8.41628959 41.1855204,9.04072398 C41.7285068,9.71945701 42.4886878,10.0723982 43.438914,10.0723982 C44.280543,10.0723982 44.9864253,9.8280543 45.5294118,9.36651584 L46.0452489,10.0452489 L46.0452489,10.0452489 Z" id="Shape" fill="#1C1C1B"></path>
                </g>
            </g>
            <g id="George-Copy" sketch:type="MSLayerGroup" transform="translate(0.000000, 23.000000)">
                <path d="M9.93665158,1.05882353 C9.04072398,0.407239819 7.92760181,0.0814479638 6.59728507,0.0814479638 C4.7239819,0.0814479638 3.14932127,0.733031674 1.90045249,2.00904977 C0.705882353,3.23076923 0.108597285,4.69683258 0.108597285,6.43438914 C0.108597285,8.06334842 0.65158371,9.39366516 1.76470588,10.4253394 C3.01357466,11.6199095 4.56108597,12.1900452 6.35294118,12.1900452 C8.00904977,12.1900452 9.33936652,11.7013575 10.3167421,10.7239819 C10.8868778,10.1538462 11.1855204,9.47511312 11.2126697,8.71493213 L11.239819,6.62443439 L7.57466063,6.62443439 L7.57466063,7.38461538 L8.30769231,7.38461538 C9.23076923,7.38461538 9.71945701,7.57466063 9.71945701,8.22624434 L9.71945701,8.71493213 C9.71945701,9.55656109 9.39366516,10.0723982 8.74208145,10.5339367 C8.14479638,10.9683258 7.57466063,11.1855204 6.65158371,11.1855204 C5.91855204,11.1855204 5.26696833,11.0226244 4.66968326,10.7239819 C3.25791855,10.0180995 2.57918552,8.63348416 2.57918552,6.13574661 C2.57918552,4.66968326 2.85067873,3.61085973 3.36651584,2.68778281 C4.04524887,1.49321267 5.13122172,0.895927602 6.59728507,0.895927602 C7.71040724,0.895927602 8.63348416,1.19457014 9.39366516,1.81900452 L9.93665158,1.05882353 L9.93665158,1.05882353 Z" id="Shape" fill="#FFFFFF" sketch:type="MSShapeGroup"></path>
                <g id="Group" transform="translate(12.488688, 1.085973)" sketch:type="MSShapeGroup">
                    <path d="M7.05882353,5.51131222 C7.08597285,3.23076923 6.35294118,2.11764706 4.83257919,2.11764706 C3.20361991,2.11764706 2.36199095,3.25791855 2.25339367,5.51131222 L7.05882353,5.51131222 L7.05882353,5.51131222 Z M7.87330317,10.0723982 C7.11312217,10.7511312 6.13574661,11.0769231 4.91402715,11.0769231 C3.50226244,11.0769231 2.36199095,10.6696833 1.49321267,9.85520362 C0.597285068,9.01357466 0.135746606,7.90045249 0.135746606,6.5158371 C0.135746606,4.94117647 0.570135747,3.66515837 1.41176471,2.74208145 C2.25339367,1.7918552 3.4479638,1.33031674 5.02262443,1.33031674 C6.32579186,1.33031674 7.33031674,1.87330317 8.09049774,2.9321267 C8.71493213,3.8280543 9.09502262,4.96832579 9.14932127,6.35294118 L2.28054299,6.35294118 L2.28054299,6.62443439 C2.28054299,7.62895928 2.52488688,8.44343891 3.04072398,9.0678733 C3.58371041,9.74660633 4.3438914,10.0995475 5.29411765,10.0995475 C6.13574661,10.0995475 6.84162896,9.85520362 7.38461538,9.39366516 L7.87330317,10.0723982 L7.87330317,10.0723982 Z" id="Shape" fill="#FFFFFF"></path>
                    <path d="M14.8235294,10.3167421 C16.4253394,10.3167421 17.2126697,8.95927602 17.2126697,6.21719457 C17.2126697,3.50226244 16.4253394,2.14479638 14.8235294,2.14479638 C13.2217195,2.14479638 12.4343891,3.50226244 12.4343891,6.21719457 C12.4343891,8.9321267 13.2217195,10.3167421 14.8235294,10.3167421 M11.4841629,2.74208145 C12.3257919,1.7918552 13.4117647,1.33031674 14.7963801,1.33031674 C16.1809955,1.33031674 17.2941176,1.7918552 18.1085973,2.74208145 C18.8959276,3.63800905 19.3031674,4.77828054 19.3031674,6.19004525 C19.3031674,7.60180995 18.8959276,8.76923077 18.1085973,9.63800905 C17.2669683,10.5882353 16.1809955,11.0497738 14.7963801,11.0497738 C13.4117647,11.0497738 12.2986425,10.5882353 11.4841629,9.63800905 C10.6968326,8.74208145 10.2895928,7.60180995 10.2895928,6.19004525 C10.2895928,4.77828054 10.6968326,3.63800905 11.4841629,2.74208145" id="Shape" fill="#FFFFFF"></path>
                    <path d="M21.4208145,9.20361991 C21.4208145,9.61085973 21.3393665,9.88235294 21.1493213,10.0180995 C20.959276,10.1538462 20.6606335,10.2352941 20.2533937,10.2352941 L20.1447964,10.2352941 L20.1447964,11.0769231 L24.9230769,11.0769231 L24.9230769,10.2352941 L24.7058824,10.2352941 C24.3257919,10.2352941 24.0542986,10.2081448 23.8914027,10.1538462 C23.5927602,10.0723982 23.4570136,9.85520362 23.4570136,9.55656109 L23.4570136,7.46606335 C23.4570136,6.29864253 23.6742081,5.15837104 24.1085973,4.09954751 C24.678733,2.71493213 25.438914,2.00904977 26.4705882,2.00904977 L26.4977376,2.00904977 L26.4977376,2.0361991 C26.1447964,2.25339367 25.9819005,2.57918552 25.9819005,2.95927602 C25.9819005,3.28506787 26.0904977,3.55656109 26.3348416,3.77375566 C26.5791855,3.99095023 26.8506787,4.07239819 27.2036199,4.07239819 C28.0723982,4.07239819 28.5339367,3.61085973 28.5339367,2.66063348 C28.5339367,2.1719457 28.3710407,1.7918552 28.0180995,1.49321267 C27.6651584,1.19457014 27.2579186,1.05882353 26.7963801,1.05882353 C25.9004525,1.05882353 25.1402715,1.38461538 24.5158371,2.0361991 C24.0271493,2.5520362 23.7013575,3.14932127 23.5113122,3.85520362 L23.4841629,3.85520362 L23.4841629,1.38461538 L21.4751131,1.38461538 L21.4751131,9.20361991 L21.4208145,9.20361991 Z" id="Shape" fill="#FFFFFF"></path>
                    <path d="M34.8597285,1.98190045 C34.8597285,1.98190045 36.1085973,-0.271493213 37.6289593,0.162895928 C39.1493213,0.597285068 38.2262443,1.84615385 37.438914,1.98190045 C36.1357466,2.19909502 36.6515837,0.325791855 35.5656109,1.68325792 C34.5067873,3.04072398 34.8597285,1.98190045 34.8597285,1.98190045" id="Shape" fill="#FFDD00"></path>
                    <path d="M34.8597285,3.14932127 C34.4524887,2.44343891 33.8552036,2.09049774 33.1221719,2.09049774 C32.3891403,2.09049774 31.8190045,2.44343891 31.3846154,3.17647059 C31.0588235,3.77375566 30.8687783,4.47963801 30.8687783,5.26696833 C30.8687783,6.05429864 31.0316742,6.760181 31.3846154,7.35746606 C31.7918552,8.06334842 32.361991,8.41628959 33.0950226,8.41628959 C33.8280543,8.41628959 34.39819,8.06334842 34.8325792,7.35746606 C35.1855204,6.760181 35.3484163,6.05429864 35.3484163,5.26696833 C35.4027149,4.45248869 35.2126697,3.74660633 34.8597285,3.14932127 M36.1085973,8.09049774 C35.2669683,8.79638009 34.2081448,9.14932127 32.9864253,9.14932127 C31.0316742,9.14932127 30.081448,9.4479638 30.081448,10.0723982 C30.081448,10.6968326 30.5429864,11.0226244 31.438914,11.0226244 L34.8868778,11.0226244 C37.1945701,11.0226244 38.361991,11.8099548 38.361991,13.3846154 C38.361991,14.6063348 37.7918552,15.5022624 36.678733,16.0995475 L36.1085973,15.3122172 C36.6515837,14.959276 36.8959276,14.5520362 36.8959276,14.0904977 C36.8959276,13.0316742 35.8914027,12.5701357 33.9095023,12.678733 C33.040724,12.7058824 32.3076923,12.7330317 31.7375566,12.7330317 C31.0045249,12.7330317 30.5429864,12.7058824 30.3257919,12.6244344 C29.1855204,12.4072398 28.6425339,11.7556561 28.6425339,10.6968326 C28.6425339,9.61085973 29.3755656,8.9321267 30.841629,8.60633484 L30.841629,8.57918552 C30.2171946,8.33484163 29.7013575,7.87330317 29.3755656,7.16742081 C29.0769231,6.57013575 28.9140271,5.89140271 28.9140271,5.15837104 C28.9140271,4.04524887 29.3755656,3.09502262 30.2714932,2.30769231 C31.1402715,1.57466063 32.1176471,1.22171946 33.2579186,1.22171946 C34.39819,1.22171946 35.3755656,1.60180995 36.2443439,2.36199095 C37.1131222,3.12217195 37.520362,4.04524887 37.520362,5.15837104 C37.4660633,6.3800905 37.0045249,7.35746606 36.1085973,8.09049774" id="Shape" fill="#FFFFFF"></path>
                    <path d="M45.2307692,5.51131222 C45.2579186,3.23076923 44.5248869,2.11764706 43.0045249,2.11764706 C41.3755656,2.11764706 40.5339367,3.25791855 40.4253394,5.51131222 L45.2307692,5.51131222 L45.2307692,5.51131222 Z M46.0452489,10.0452489 C45.2850679,10.7239819 44.3076923,11.0497738 43.0859729,11.0497738 C41.6742081,11.0497738 40.5339367,10.6425339 39.6651584,9.8280543 C38.7692308,8.98642534 38.3076923,7.87330317 38.3076923,6.48868778 C38.3076923,4.91402715 38.7420814,3.63800905 39.5837104,2.71493213 C40.4253394,1.76470588 41.6199095,1.30316742 43.1945701,1.30316742 C44.4977376,1.30316742 45.5022624,1.84615385 46.2624434,2.90497738 C46.8868778,3.80090498 47.2669683,4.94117647 47.321267,6.32579186 L40.4253394,6.32579186 L40.4253394,6.59728507 C40.4253394,7.60180995 40.6696833,8.41628959 41.1855204,9.04072398 C41.7285068,9.71945701 42.4886878,10.0723982 43.438914,10.0723982 C44.280543,10.0723982 44.9864253,9.8280543 45.5294118,9.36651584 L46.0452489,10.0452489 L46.0452489,10.0452489 Z" id="Shape" fill="#FFFFFF"></path>
                </g>
            </g>
        </g>
    </g>
</svg>