<?xml version="1.0" encoding="UTF-8" standalone="no"?>
<svg width="100px" height="43px" viewBox="0 0 100 43" version="1.1" xmlns="http://www.w3.org/2000/svg" xmlns:xlink="http://www.w3.org/1999/xlink" xmlns:sketch="http://www.bohemiancoding.com/sketch/ns">
    <!-- Generator: Sketch 3.3.2 (12043) - http://www.bohemiancoding.com/sketch -->
    <title>logo-white</title>
    <desc>Created with Sketch.</desc>
    <defs></defs>
    <g id="ASDA.com---All-sizes" stroke="none" stroke-width="1" fill="none" fill-rule="evenodd" sketch:type="MSPage">
        <g id="logo-white" sketch:type="MSLayerGroup">
            <path d="M9.975,13.35375 C10.36375,12.62 10.09,11.81875 9.47375,11.3875 C8.87375,10.9675 4.05875,7.80125 3.11,7.3 C2.1625,6.7975 0.94625,7.23875 0.39375,8.285 C-0.15875,9.33 0.16125,10.58375 1.10875,11.085 C2.0575,11.5875 7.38375,13.785 8.0675,14.045 C8.7725,14.31125 9.5875,14.0875 9.975,13.35375 M9.79125,19.96375 C10.37375,19.48625 10.5875,18.66875 10.14625,17.965 C9.705,17.2625 8.87625,17.09875 8.1925,17.4175 C7.53,17.72625 2.38,20.315 1.4725,20.885 C0.565,21.455 0.3375,22.73 0.96625,23.73 C1.595,24.7325 2.84125,25.0825 3.74875,24.51125 C4.6575,23.94125 9.22625,20.42625 9.79125,19.96375 M15.335,9.48125 C15.4,8.7525 15.7325,2.99875 15.69375,1.92625 C15.65375,0.855 14.66375,0.02125 13.4825,0.065 C12.3,0.10875 11.375,1.01375 11.415,2.085 C11.455,3.1575 12.2125,8.87125 12.33125,9.5925 C12.4525,10.33625 13.055,10.93 13.88375,10.89875 C14.71375,10.86875 15.26875,10.23125 15.335,9.48125 M27.1425,7.29125 C26.515,6.29 25.26875,5.94125 24.36,6.51125 C23.4525,7.08125 18.88375,10.59625 18.31875,11.05875 C17.735,11.53625 17.5225,12.35375 17.96375,13.0575 C18.405,13.76 19.23375,13.92375 19.9175,13.605 C20.58,13.29625 25.72875,10.70875 26.6375,10.1375 C27.545,9.5675 27.7725,8.29375 27.1425,7.29125" id="Fill-1" fill="#FFCD00" sketch:type="MSShapeGroup"></path>
            <path d="M82.90625,32.16 L85.79375,22.6475 L88.6725,32.16 L82.90625,32.16 L82.90625,32.16 Z M61.815,35.295 L60.04125,35.295 L60.04125,22.11875 L61.7925,22.11875 C64.44375,22.11875 67.395,23.215 67.395,28.67625 C67.395,33.51125 64.78125,35.295 61.815,35.295 L61.815,35.295 Z M15.02375,32.16 L17.97,22.5375 L20.8625,32.16 L15.02375,32.16 L15.02375,32.16 Z M91.03375,15.28 L81.13625,15.28 L75.49125,31.59875 C75.74375,30.2425 75.78875,29.16 75.78875,28.68875 C75.78875,21.8525 71.86625,15.28 62.6525,15.28 L52.07125,15.28 L52.1025,31.5125 C51.1875,26.90125 46.97,25.66375 41.72375,24.07125 C39.76375,23.46875 38.68625,22.51 39.08,21.61625 C39.41625,20.8375 40.6175,20.5925 42.07625,20.79375 C44.3025,21.1125 46.08,21.85625 47.79125,22.78625 L50.13,16.9975 C49.60125,16.7375 45.81375,14.4675 41.065,14.4675 C34.4425,14.4675 30.215,17.69375 30.215,22.455 C30.215,26.69875 32.83,29.16625 37.64125,30.54875 C42.815,32.0475 44.1275,32.65 43.9725,34.1375 C43.8375,35.4175 40.63,36.97875 32.78375,32.15625 L30.45375,36.97625 L23.25625,15.28 L13.3625,15.28 L4.01125,42.25 L11.81,42.25 L13.025,38.43 L22.86,38.43 L24.0225,42.25 L32.21,42.25 L31.2825,39.61125 C34.05,41.21 37.48375,42.6725 41.58875,42.6725 C47.88,42.6725 51.28,39.24125 52.09125,35.9525 L52.09125,42.25 L62.6425,42.25 C68.93125,42.25 72.2225,39.25375 73.94,36.04875 L71.7825,42.25 L79.575,42.25 L80.84125,38.43 L90.665,38.43 L91.79625,42.25 L99.99375,42.25 L91.03375,15.28 L91.03375,15.28 Z" id="Fill-2" fill="#FFFFFF" sketch:type="MSShapeGroup"></path>
        </g>
    </g>
</svg>