<?xml version="1.0" encoding="UTF-8" standalone="no"?>
<svg width="93px" height="90px" viewBox="0 0 93 90" version="1.1" xmlns="http://www.w3.org/2000/svg" xmlns:xlink="http://www.w3.org/1999/xlink" xmlns:sketch="http://www.bohemiancoding.com/sketch/ns">
    <!-- Generator: Sketch 3.3.1 (12002) - http://www.bohemiancoding.com/sketch -->
    <title>NEW! Copy</title>
    <desc>Created with Sketch.</desc>
    <defs>
        <path d="M93.0366419,0.754581387 L0,0.754581387 L0,90.6691566 C19.5776419,50.8926947 52.5630826,18.9421704 93.0367016,0.754554553 Z" id="path-1"></path>
    </defs>
    <g id="ASDA.com---All-sizes" stroke="none" stroke-width="1" fill="none" fill-rule="evenodd" sketch:type="MSPage">
        <g id="Mobile-Portrait" sketch:type="MSArtboardGroup" transform="translate(-10.000000, -589.000000)">
            <g id="BBQ-Essentials-Copy" sketch:type="MSLayerGroup" transform="translate(0.000000, 530.000000)">
                <g id="Group" transform="translate(10.000000, 59.000000)">
                    <g id="MIDDLE">
                        <g id="img">
                            <g id="NEW!-Copy" transform="translate(0.000000, -1.086957)">
                                <mask id="mask-2" sketch:name="Mask" fill="white">
                                    <use xlink:href="#path-1"></use>
                                </mask>
                                <use id="Mask" fill="#005EB8" sketch:type="MSShapeGroup" xlink:href="#path-1"></use>
                                <g id="Fill-4-+-Fill-79" mask="url(#mask-2)" fill="#FFFFFF" sketch:type="MSShapeGroup">
                                    <g transform="translate(24.663317, 28.000000) rotate(-45.000000) translate(-24.663317, -28.000000) translate(7.326633, 18.000000)">
                                        <path d="M17.8199307,18.8259187 C17.8131874,18.8321082 17.8061679,18.8378296 17.7990637,18.8429146 C17.8726739,18.8079683 17.9352676,18.774635 17.8746769,18.7429146 C17.871719,18.7552443 17.8658589,18.7680933 17.8580212,18.7806497 L17.8580212,18.7806497 L17.7839884,18.8073015 C17.8066539,18.8023742 17.8341752,18.7916201 17.857939,18.7807813 C17.849575,18.7941549 17.8389706,18.807193 17.8272429,18.8189143 C17.7969372,18.8206153 17.7672431,18.805651 17.7532874,18.761809 L17.7437874,18.861809 C17.7601082,18.849027 17.7891057,18.8379895 17.8199307,18.8259187 L17.8199307,18.8259187 Z M4.57477091,19.4998705 C4.56988499,19.4931184 4.56434419,19.4845534 4.55819943,19.4744623 C4.57099943,19.4664623 4.58329943,19.4644623 4.59599943,19.4524623 C4.59788913,19.4663949 4.59907869,19.4778654 4.59960384,19.4870751 C4.64609828,19.4641269 4.66998011,19.4575026 4.75136526,19.3977889 C4.72268184,19.4142714 4.71277229,19.4534673 4.6933552,19.481206 C4.76372706,19.4904523 4.8249934,19.4882412 4.82163661,19.4072362 C4.91478234,19.4697487 4.84611902,19.5919598 4.7889934,19.6745729 C4.79042053,19.5742714 4.64963661,19.5559799 4.55164666,19.5127638 C4.56003383,19.50793 4.56768779,19.5036791 4.57477091,19.4998705 L4.57477091,19.4998705 Z M3.74030693,18.8251993 C3.67180425,18.8245483 3.67257283,18.9829869 3.61884264,18.8715578 C3.58053108,18.9774874 3.69405872,18.9105528 3.73683259,18.9358794 C3.78816928,19.0727638 3.58020948,19.0279397 3.49468184,19.0779899 C3.47616928,19.0058291 3.54270194,18.9829146 3.42835018,18.9499497 C3.41448083,19.0084422 3.35295319,19.0621106 3.28195822,19.0030151 C3.29584767,19.0954774 3.16332505,19.040201 3.10173711,19.0438191 C3.17285269,19.0512563 3.28161651,19.1039196 3.2490336,19.1903518 C3.20171701,19.2359799 3.15886274,19.2609045 3.03626978,19.2671357 L3.12593812,19.2972864 C3.04153611,19.4490452 2.93681249,19.2261307 2.79990797,19.2922613 C2.85156626,19.2271357 2.88949591,19.2209045 2.93182757,19.1457286 C2.87050093,19.199397 2.75241048,19.2868342 2.65375722,19.3469347 L2.51092304,19.2327638 C2.50692304,19.3023116 2.37361651,19.2488442 2.38891299,19.3405025 C2.22800847,19.3041206 2.49152606,19.2102513 2.49572706,19.1403015 C2.29586777,19.1109548 2.36983762,19.318593 2.16433008,19.2088442 L2.21009892,19.1127638 C2.14851098,19.1169849 2.03546576,19.1873367 2.02033008,19.1455276 C2.02577732,19.1766834 2.05407882,19.158794 2.09196827,19.1523618 C2.08654113,19.3423116 1.83506375,19.3300503 1.89192807,19.5159799 L1.9770738,19.5135678 C1.85630998,19.5728643 1.79023963,19.7177889 1.68075219,19.6697487 C1.59436023,19.6229146 1.70869189,19.5310553 1.74443058,19.4739698 C1.62221953,19.4842211 1.68640043,19.7003015 1.5412547,19.7091457 C1.62167681,19.7250251 1.62024968,19.7953769 1.5853351,19.8524623 C1.6691743,19.8486432 1.84629993,19.8528643 1.80165671,19.7790955 L1.76857129,19.7662312 C1.76688284,19.7159799 1.80828988,19.6894472 1.82607882,19.6607035 C1.93848083,19.64 1.89403862,19.7368844 1.92322455,19.7694472 C2.11524465,19.7660302 1.90416928,19.5768844 2.07693309,19.5525628 L2.10579742,19.5851256 C2.17986777,19.521608 2.30662154,19.4934673 2.30971701,19.3732663 C2.40575722,19.4830151 2.4972145,19.2912563 2.59226978,19.3511558 C2.65216928,19.6178894 2.29580747,19.3811055 2.22282254,19.5455276 C2.32234013,19.5855276 2.1931944,19.6832161 2.16652103,19.7509548 L2.43054113,19.5859296 C2.45952606,19.6190955 2.56479239,19.7396985 2.60039038,19.6333668 L2.57695319,19.6305528 C2.68479239,19.5817085 2.63655118,19.4759799 2.74037028,19.4972864 C2.75944566,19.519196 2.73633008,19.5672362 2.73174716,19.5865327 C2.82585772,19.5969849 2.7969934,19.5133668 2.85345571,19.479196 C2.94746576,19.4888442 2.82583762,19.5971859 2.90583762,19.6148744 C2.99387782,19.4938693 3.07500345,19.6138693 3.16445068,19.5931658 C3.10203862,19.4460302 3.49377732,19.3292462 3.2771944,19.2243216 L3.48037028,19.0866332 C3.56026978,19.1563819 3.36175722,19.3240201 3.44151601,19.4440201 L3.26724465,19.4651256 C3.32435018,19.6510553 3.61220948,19.2854271 3.75868184,19.4822111 C3.85247078,19.4771859 3.82609892,19.4536683 4.01504365,19.5236181 L3.96077229,19.3575879 C4.05749591,19.3837186 4.10004867,19.4723618 4.10863159,19.5031156 C4.16047078,19.4846231 4.2090939,19.4822111 4.25968686,19.4826131 C4.25013912,19.5095477 4.23482254,19.5352764 4.20380747,19.5487437 C4.28549591,19.6337688 4.30039038,19.5955779 4.31737531,19.5421106 C4.34845068,19.4940704 4.40541551,19.4914573 4.46268184,19.4854271 L4.42000847,19.5559799 C4.45291299,19.5372864 4.4930135,19.5125628 4.49269189,19.481206 C4.51624968,19.4773869 4.53823963,19.4705528 4.55819943,19.4568844 C4.53888284,19.4291457 4.48768686,19.3348744 4.39988787,19.3021106 C4.62045068,19.3401005 4.78141551,19.280804 4.981315,19.3979899 C4.9810135,19.4482412 4.91361651,19.52 4.9371542,19.5232161 C5.03080244,19.5356784 5.11779742,19.4367839 5.09994817,19.3640201 C5.11980747,19.3561809 5.13530495,19.3525628 5.1490537,19.3499497 C5.17184767,19.3903518 5.19904365,19.4331658 5.24296325,19.4347739 C5.25486274,19.4490452 5.27291299,19.4605025 5.30459139,19.4619095 C5.31747581,19.3226131 5.49988787,19.3680402 5.52979742,19.3019095 C5.48698335,19.2926633 5.4369733,19.3005025 5.38658134,19.3117588 C5.44796827,19.2120603 5.50020948,19.0998995 5.56587782,19.1656281 C5.4412547,19.2691457 5.72820948,19.2886432 5.52877229,19.3517588 C5.69401852,19.5061307 5.58810897,19.2192965 5.74774716,19.2613065 L5.85444063,19.3169849 C5.85172706,19.4174874 5.70171701,19.3859296 5.7291944,19.4201005 L5.79578737,19.399397 C5.7369934,19.4824121 5.47385772,19.4657286 5.33027983,19.5971859 L5.65409892,19.6114573 C6.03894314,19.4434171 6.55389792,19.518191 6.86837028,19.2623116 L6.85423963,19.2667337 C6.85904365,19.2564824 6.85976727,19.2377889 6.86018938,19.199598 L6.87838033,19.2225126 L6.9370135,19.1398995 C7.02428988,19.2239196 7.16959641,19.2259296 7.29978737,19.2854271 C7.21637028,19.2331658 7.21635018,19.2331658 7.20030998,19.159799 C7.20430998,19.0594975 7.21130495,19.0158794 7.3292949,19.039397 C7.33840043,19.1093467 7.26800847,19.1155779 7.35819943,19.161809 C7.31102355,19.1324623 7.34398837,19.078593 7.39261149,19.0639196 C7.46185772,19.1023116 7.56963661,19.0998995 7.57888284,19.1706533 C7.55138536,19.1927638 7.52477229,19.1712563 7.50350596,19.1630151 C7.47604867,19.1855276 7.63104365,19.2132663 7.54955621,19.280804 L7.66286274,19.2476382 C7.73687279,19.2994975 7.62830998,19.3453266 7.65938536,19.3801005 C7.84611902,19.3109548 7.92686274,19.1386935 8.09594817,19.0719598 C8.09176727,19.1097487 8.10692304,19.2673367 8.10382757,19.2213065 C8.24272204,19.2540704 8.37275219,19.0196985 8.52408887,18.9907538 C8.50658134,19.039799 8.44756626,19.0273367 8.40376727,19.0546734 C8.87663159,19.0649246 9.25934515,19.0289447 9.71176727,19.1356784 L9.80975722,18.9630151 L9.93464164,19.0592965 C10.4051944,19.1177889 10.7486316,18.9803015 11.1829029,18.8926633 C11.3185612,18.8701508 11.2749431,18.9977889 11.3432447,19.0377889 C11.6441894,19.0291457 11.7013351,18.840402 11.9840487,18.7796985 C11.9488929,18.8325628 11.8939381,18.9774874 12.0174155,18.9738693 C12.0363502,18.9252261 12.0450537,18.8504523 12.1251743,18.8727638 L12.0899381,18.9258291 C12.1669632,18.9921608 12.2296969,18.918191 12.3791643,18.9364824 C12.6383401,18.9117588 12.8766115,18.7772864 13.0762899,18.5815075 C13.3074256,18.5794975 13.0661592,18.7573869 13.1126115,18.7887437 C12.9459783,18.7429146 13.0023401,18.8267337 12.9716668,18.8850251 C13.0536768,18.8325628 13.1551039,18.7965829 13.2082698,18.9083417 C13.3270436,18.8922613 13.3813351,18.8932663 13.4932949,18.8062312 C13.4369331,18.8496482 13.3811944,18.7915578 13.4328527,18.7350754 C13.5335562,18.7674372 13.7789431,18.7047236 13.7759683,18.8500503 C14.339124,18.7788945 14.9741391,18.7654271 15.5793653,18.719196 C15.6766517,18.6375879 15.4999683,18.6952764 15.5526316,18.639196 C15.6949431,18.5324623 15.6732346,18.681809 15.7874055,18.5969849 L15.7431844,18.678995 C15.9208728,18.679598 16.0995663,18.5220101 16.2668024,18.438593 C16.2438879,18.5300503 16.4123301,18.5045226 16.2730336,18.5664322 C16.3560487,18.5465327 16.4816768,18.9421106 16.5413753,18.8560804 L16.4247924,18.4876382 C16.4272045,18.4504523 16.5461994,18.4661307 16.5329331,18.4420101 C16.610722,18.5117588 16.7055964,18.5931658 16.7562497,18.5899497 C16.7864004,18.6832161 16.6577572,18.6701508 16.5882095,18.6721608 C16.5870034,18.8307538 16.8288125,18.759598 16.7361492,18.9105528 C16.8838879,18.8759799 16.7102195,18.8305528 16.7960487,18.7668342 L16.92831,18.7935678 L16.8247924,18.7463317 C16.930722,18.6928643 16.9612748,18.5700503 17.1114256,18.6502513 L17.2535361,18.4876382 C17.2756467,18.6118593 17.3648929,18.5045226 17.4438879,18.5298492 L17.3996668,18.6118593 C17.5023803,18.6026131 17.5435864,18.6219095 17.61032,18.6645226 C17.5580587,18.7768844 17.5156467,18.6424121 17.4963502,18.7479397 L17.611124,18.7784925 C17.6069029,18.7079397 17.6762497,18.6488442 17.5928326,18.6102513 C17.690923,18.4731658 17.7429833,18.360603 18.0071039,18.358392 C18.1321291,18.4729648 17.8842899,18.4717588 17.9397673,18.5887437 C18.2153452,18.6261307 18.2587622,18.2584925 18.4197673,18.2653266 C18.6259984,18.3051256 18.609315,18.1943719 18.8161492,18.1776884 C18.7538376,18.2625126 18.9646919,18.2592965 19.0058979,18.3360804 L18.927908,18.4251256 C18.9898175,18.3969849 19.0513251,18.4263317 19.0354457,18.4870352 C19.0189632,18.3764824 19.2991643,18.3718593 19.4396668,18.3131658 L19.410923,18.2194975 C19.5212748,18.1831156 19.6736366,18.1177889 19.7928326,18.1374874 C19.967707,18.1005025 19.9246919,18.0178894 20.0569532,17.9097487 C20.1349431,17.9929648 20.130119,18.0944724 20.1086115,18.199598 C20.0599683,18.1523618 19.9811743,18.1837186 19.9025813,18.1567839 C19.8810348,18.1656155 19.860016,18.1755683 19.8394183,18.1863028 C19.825548,18.1642864 19.8112331,18.1492199 19.7961837,18.1374874 C19.7836286,18.1484874 19.773056,18.1634874 19.7578577,18.1714874 L19.8149928,18.1994836 C19.6365761,18.2989301 19.4874591,18.448395 19.2949431,18.4164824 C19.207908,18.6502513 19.4432849,18.3835176 19.5540386,18.4605025 C19.5514256,18.4743719 19.5437874,18.478995 19.5355462,18.481608 C19.5448299,18.4818015 19.5531831,18.4825532 19.5618593,18.4869074 C19.5420015,18.4920312 19.5196104,18.5007544 19.4929331,18.513608 C19.5058724,18.5073737 19.5179866,18.5034713 19.5293044,18.5005683 C19.4524062,18.5310317 19.3544294,18.5765205 19.3399683,18.678794 C19.4714256,18.6498492 19.4270034,18.4450251 19.5958477,18.5374874 C19.7156467,18.4687437 19.8219783,18.6460302 19.8963502,18.6594975 C19.9745411,18.5706533 19.9715261,18.3855276 20.1733351,18.4146734 L20.089918,18.5463317 C20.3166517,18.5411055 20.1900185,18.3539698 20.4002698,18.3527638 C20.3258979,18.3398995 20.4678075,18.2237186 20.3271039,18.2249246 C20.3938376,18.1537688 20.5468024,18.1356784 20.6621793,18.1696482 C20.6913251,18.1491457 20.6672045,18.1254271 20.6712246,18.081809 C20.5566885,18.0055704 20.49014,18.1375413 20.4013555,18.0812793 L20.4013555,18.0812793 L20.4535018,18.0276152 C20.498944,18.0645176 20.5482924,18.1214355 20.568913,17.9744724 L20.288511,17.977617 L20.3593862,18.0605093 L20.2824808,18.1911558 C20.1630838,18.1447236 20.1472045,18.0331658 20.2175562,17.9760804 C20.1845914,17.9829146 20.1562497,18.0032161 20.131124,17.9796985 C20.1037874,17.7710553 20.2750436,18.0494472 20.3100185,17.8705528 L20.2272045,17.8880402 C20.1866014,17.7537688 20.4179582,17.7628141 20.5256969,17.7688442 C20.649315,17.8291457 20.7612748,17.8490452 20.7723301,17.9473367 L20.610521,17.9939698 C20.6973552,18.0703518 20.8173552,17.9417085 20.9124306,17.9433166 C20.9188627,17.9563819 20.92831,17.9666332 20.9395663,17.9726633 C20.9345411,17.9644221 20.9315261,17.9555779 20.9313251,17.9461307 C20.9514256,17.9507538 20.969717,17.961809 20.9857974,17.9849246 C21.0690135,17.9881407 21.1898175,17.9242211 21.2680085,17.9539698 L21.2563502,17.8665327 L21.2469029,17.9159799 C21.170722,17.9145729 21.0657974,17.8631156 21.1218778,17.7963819 C21.2925311,17.7304523 21.3313251,17.8994975 21.3741391,17.9744724 C21.3377572,18.1107538 21.2062999,17.9772864 21.1200688,18.0257286 C21.1761492,18.1579899 21.2951441,18.0353769 21.4746416,18.119598 C21.407506,18.2675377 21.2690135,18.121809 21.2334356,18.2578894 C21.3767522,18.279598 21.4115261,18.1746734 21.5624808,18.2084422 C21.5447924,18.2765829 21.3988627,18.2866332 21.410521,18.3734673 L21.5076065,18.4126633 C21.2716266,18.4269347 21.5532346,18.5937688 21.369918,18.6335678 C21.4581592,18.6920603 21.488511,18.5117588 21.6141391,18.601407 C21.5783602,18.5382915 21.4768527,18.4249246 21.5940386,18.3650251 L21.728712,18.4052261 C21.7859984,18.4747739 21.5926316,18.5634171 21.6808728,18.6217085 L21.8197673,18.5686432 C21.8141391,18.5254271 21.7466014,18.5047236 21.7876065,18.4440201 C21.8694155,18.4896482 21.9168527,18.2725628 22.011124,18.2066332 C22.087305,18.2084422 22.1478075,18.2166834 22.1755462,18.2673367 C22.3650939,18.1346734 22.608109,18.1358794 22.7835864,18.0116583 C22.6639884,18.1007035 22.7900185,18.161005 22.8627823,18.2253266 C22.7242899,18.2456281 22.7248929,18.3825126 22.7355462,18.4703518 C22.8195663,18.4544724 22.8732346,18.3131658 22.8302195,18.2677387 C22.9715261,18.3222111 22.9265009,18.1714573 23.051124,18.2627136 C23.1317271,18.3095477 23.0121291,18.398191 23.0402698,18.4494472 C23.1922296,18.4544724 23.0802698,18.2828141 23.2456969,18.3137688 C23.2368527,18.3318593 23.2217773,18.3376884 23.2350436,18.3632161 C23.3244909,18.3911558 23.4199683,18.3266332 23.4386617,18.2582915 C23.5343401,18.4365829 23.7061994,18.238392 23.687908,18.4118593 C23.9033854,18.3648241 23.6557472,18.3169849 23.6981592,18.2562814 C23.7864004,18.1798995 23.9498175,18.2424121 24.0006718,18.2699497 C23.9476065,18.2737688 23.8985612,18.321407 23.847305,18.2944724 L23.8927321,18.4148744 C24.1604708,18.5007035 24.0633854,18.1427136 24.3222798,18.2478392 C24.1884105,18.3101508 24.2774557,18.3388945 24.210923,18.4233166 C24.251124,18.3931658 24.4535361,18.4281407 24.3315261,18.3356784 C24.4288125,18.3465327 24.4961492,18.3684422 24.5628828,18.3909548 C24.649516,18.3449246 24.7435864,18.3129648 24.7946416,18.2345729 C24.930923,18.2488442 25.0306215,18.3352764 25.0947421,18.3889447 C25.3823803,18.3055276 25.6432849,18.4601005 25.9461994,18.3744724 L25.9240889,18.3668342 C26.1572547,18.3953769 25.8247924,18.2038191 26.0678075,18.2150754 C26.0312246,18.361809 26.210521,18.318794 26.2865009,18.398995 C26.5809733,18.4844221 26.8046919,18.3083417 27.0742396,18.4194975 C27.0708225,18.4502513 27.0515261,18.4860302 26.9984607,18.4876382 C27.2050939,18.5427136 27.3741391,18.521407 27.5616768,18.5388945 L27.5526316,18.5565829 C27.8467019,18.6914573 28.1267019,18.5648241 28.4406718,18.5503518 C28.4141391,18.5670352 28.4036869,18.6221106 28.3829833,18.640201 C28.5369532,18.6844221 28.7841894,18.7240201 28.9043904,18.598995 C29.0776567,18.758794 29.0310235,18.5650251 29.2567522,18.7256281 C29.2680085,18.7531658 29.2310235,18.7477387 29.2147421,18.7521608 C29.3269029,18.8110553 29.410923,18.8034171 29.5269029,18.8319598 C29.7948426,18.7644221 29.8800688,18.5815075 30.1761492,18.6727638 C30.168511,18.8739698 29.9851944,18.7007035 29.9610738,18.8590955 C30.0247924,18.8297487 30.0814758,18.7955779 30.1586617,18.8524623 C30.0999683,18.9246231 30.1421793,18.9001005 30.0997673,18.9690452 C30.1562497,19.0283417 30.3783602,18.7909548 30.3751441,18.8104523 C30.3833854,18.7720603 30.3640889,18.7483417 30.3041894,18.7467337 C30.3892145,18.6331658 30.6008728,18.7728643 30.7524306,18.7435176 C30.7055964,18.7340704 30.5618778,18.6753769 30.6300185,18.5887437 C30.8203703,18.6564824 30.9114256,18.4749749 31.0609733,18.4162814 C31.2290135,18.5314573 30.9029833,18.5636181 30.9178577,18.7075377 C30.9407723,18.7626131 30.9962497,18.8842211 30.9136366,18.9276382 C31.0692145,18.9798995 31.2016768,18.878995 31.3496165,18.8715578 L31.3393653,18.9099497 C31.5395663,18.9258291 31.7825813,18.7921608 31.9339381,18.9027136 L31.8543401,18.841407 C31.891124,18.8245226 31.9890135,18.8538693 32.0595663,18.7857286 C32.0410738,18.8496482 32.1578577,18.9334673 32.0943401,18.9762814 C32.2249934,18.7843216 32.5660989,18.9459296 32.7104205,18.7752764 C32.7504205,18.839598 32.688109,18.9127638 32.6613753,18.9555779 C32.5425813,18.9091457 32.5094155,18.8584925 32.4261994,18.9260302 C32.529516,18.9467337 32.5920286,19.0168844 32.5652949,19.0598995 C32.6971542,18.9549749 32.9526316,18.9670352 33.0382597,18.8544724 C33.0965512,18.9378894 33.1562497,18.9929648 33.1009733,19.0910553 C33.4290135,19.1137688 33.0392648,18.719799 33.3924306,18.8249246 C33.5214758,18.9754774 33.1948426,18.9159799 33.4040889,19.0170854 L33.3586617,19.0213065 C33.4308225,19.3390955 33.528712,18.8629146 33.7078075,18.9322613 C33.6810738,19.0856281 33.5496165,18.9941709 33.6350436,19.1403015 C33.8054959,19.158794 33.9580587,18.9710553 34.1003703,19.0828141 L34.050722,19.1332663 C34.1582597,19.161407 34.3363502,19.2777889 34.4364507,19.3149749 C34.4272045,19.3443216 34.4155462,19.3332663 34.3938376,19.3314573 C34.5391643,19.4733668 34.5055964,19.2986935 34.5924306,19.4691457 L34.6696165,19.4267337 C34.6282095,19.3413065 34.5202698,19.1963819 34.3864004,19.2311558 C34.5212748,19.198392 34.3196668,18.9835176 34.4203703,18.8870352 L34.3785612,18.9258291 C34.2071039,18.600201 33.850923,18.438593 33.5180587,18.2520603 C33.249114,18.3370854 33.1482095,18.081005 32.8764507,18.1268342 C32.7966517,18.2922613 32.8225813,18.1511558 32.6058979,18.1380905 C32.7210738,18.1419095 32.649315,18.0070352 32.5835864,17.9684422 C32.5323301,18.0048241 32.4788627,18.0112563 32.4255964,18.0160804 C32.3968527,17.9467337 32.1572547,17.7509548 32.0368527,17.8538693 C31.9186617,17.7728643 32.0774557,17.8028141 32.1126316,17.7710553 C32.0770537,17.6707538 31.9944406,17.8223116 31.9628828,17.7531658 C31.9628828,17.7533668 31.96831,17.7346734 31.9833854,17.7284422 C31.7843904,17.7001005 31.6744406,17.6337688 31.4714256,17.5784925 C31.4272045,17.7505528 31.2589632,17.6120603 31.1582597,17.6621106 C31.1960487,17.6100503 31.0521291,17.5805025 30.9980587,17.5388945 L30.8702195,17.6542714 C30.7472045,17.7497487 30.729315,17.5555779 30.5807723,17.598191 L30.610923,17.6337688 C30.5015763,17.6727638 30.2444909,17.5362814 30.1532346,17.4307538 C29.17032,17.6739698 28.6981592,17.0984925 27.6838879,17.1350754 C27.6159482,17.1847236 27.7269029,17.2267337 27.6716266,17.3027136 C27.568913,17.3173869 27.5461994,17.3089447 27.4537371,17.3067337 C27.5329331,17.358191 27.5226818,17.2992965 27.5098175,17.3473367 L27.6541391,17.3049246 C27.6601693,17.318392 27.6442899,17.3228141 27.6565512,17.3487437 C27.7049934,17.3350754 27.7628828,17.3027136 27.8235864,17.3151759 C27.7331341,17.3561809 27.7019783,17.4850251 27.5847924,17.4291457 C27.5948426,17.4116583 27.610722,17.4068342 27.6426818,17.3973869 C27.5443904,17.3821106 27.5363502,17.4438191 27.4639884,17.4060302 C27.3747421,17.3726633 27.3950436,17.4136683 27.3859984,17.3565829 L27.1070034,17.2739698 C26.9596668,17.4227136 26.7926316,17.2685427 26.7474055,17.2520603 C26.7823803,17.1372864 26.9357472,17.2235176 27.009918,17.1117588 L26.9112246,17.0223116 L26.9013753,17.1155779 L26.7570537,17.0844221 L26.7658979,17.0669347 C26.7474055,17.1027136 26.72831,17.1382915 26.6923301,17.1047236 C26.6865009,17.0914573 26.6732346,17.0655276 26.689516,17.0605025 L26.5839884,17.1083417 C26.647707,17.0136683 26.4939381,17.0765829 26.5128326,16.9656281 C26.1755462,16.8984925 26.0780587,17.1023116 25.7841894,16.9433166 C25.7843668,16.9435198 25.7845415,16.9437239 25.7847135,16.943929 C25.7739521,16.9362738 25.7620263,16.929498 25.7488125,16.9238191 C25.7640509,16.940966 25.7787401,16.9561799 25.7932665,16.9703106 C25.7901617,17.0289356 25.6727031,17.1135728 25.5950436,17.0946734 C25.5427823,17.0665327 25.529918,17.041005 25.5642899,16.998995 L25.4432849,17.0538693 C25.2961492,16.8763819 25.1476065,16.9867337 24.92831,16.9242211 L24.9401693,16.8751759 C24.8579582,16.9326633 24.769516,16.9780905 24.6471039,16.958392 L24.6704205,16.8605025 C24.5210738,16.7905528 24.5542396,17.0661307 24.3894155,17.0022111 C24.3898175,17.1077387 24.4935361,17.1630151 24.5088125,17.2629146 C24.4706215,17.1553769 24.2935361,17.1384925 24.3345411,17.2148744 C24.169918,17.2572864 24.2205713,17.2116583 24.2065009,17.1863317 L24.1098175,17.2502513 C23.9944406,17.2446231 24.0732346,17.1117588 24.1160487,17.0510553 C24.007908,17.1644221 23.890722,17.0846231 23.76831,17.0667337 L23.8177572,17.0192965 L23.6708561,17.0018955 L23.730722,16.9303822 C23.6625813,16.9036533 23.5996668,16.9316196 23.5457974,16.9368169 C23.5079138,17.0959297 23.5706657,16.9381353 23.646223,17.0080434 C23.5423015,17.0835946 23.4004829,17.0884597 23.2690135,17.0470352 L23.3620788,16.9073367 C23.2661994,16.8353769 23.3132346,16.9559799 23.288109,16.9796985 C23.1381592,17.0490452 23.1051944,16.9543719 23.0247924,16.8765829 C22.7853954,17.0239196 22.5415763,16.6538693 22.3377572,16.8655276 L22.3112246,16.7839196 C22.0326316,16.9630151 21.7045914,16.718794 21.4858979,16.9692462 C21.1361492,16.6892462 21.2678075,17.2323618 20.9474055,16.9827136 L20.9590637,17.0233166 C19.9262999,17.0030151 18.8245914,16.8962814 17.8680085,17.0834171 L17.8672045,17.0257286 C16.3086115,17.0046231 14.8054959,17.2233166 13.2678075,17.2972864 C13.1287321,17.361407 13.2249532,17.481608 13.1066617,17.5551759 C13.0527321,17.5543719 12.93231,17.5710553 12.9260989,17.5007035 C13.0267019,17.4532663 12.9633653,17.3953769 12.9965311,17.3648241 C12.8246115,17.3857286 12.5950235,17.3222111 12.4483502,17.4211055 L12.5846316,17.5017085 C12.5279482,17.5451256 12.4318075,17.5266332 12.3772748,17.5266332 C12.39631,17.478191 12.3093552,17.3851256 12.35432,17.358995 C12.0483904,17.6126633 12.0926919,17.2828141 11.826722,17.3955779 C11.7887723,17.5939698 11.4606316,17.7821106 11.24831,17.9405025 L11.1257572,17.9007035 C11.2828225,17.8878392 11.1102195,17.759799 11.3056768,17.7515578 C11.1380989,17.7097487 10.9948627,17.8068342 10.8384607,17.7903518 C10.8727522,17.8359799 10.8708828,17.9001005 10.8112246,17.9278392 C10.7144004,17.9097487 10.6972145,17.8132663 10.5884909,17.8136683 L10.689315,17.7429146 C10.6108627,17.6769849 10.5579783,17.7784925 10.492511,17.7963819 C10.4633653,17.7173869 10.3008527,17.7179899 10.3208326,17.6251256 C10.1860587,17.7495477 10.1286919,17.6918593 9.97906375,17.7766834 C10.1497572,17.8462312 9.94756626,17.8876382 9.97233008,17.9529648 L10.1522899,17.9033166 C9.8889934,17.8739698 10.2347823,17.880804 10.2023401,17.7447236 C10.3298175,17.7969849 10.0573552,17.9881407 10.2586014,17.9471357 C10.0225813,18.040804 9.9651743,17.9841206 9.72818938,18.1222111 C9.87538536,18.081608 9.70841048,18.2148744 9.79291299,18.2492462 C9.60360646,18.2729648 9.7410939,18.2056281 9.67367681,18.1226131 C9.57068184,18.1366834 9.52485269,18.0619095 9.43984767,18.1734673 C9.26800847,18.1485427 9.45466174,18.0675377 9.36428988,18.0196985 C9.4169733,17.9179899 9.84260144,18.0906533 9.76722455,17.7915578 C9.85450093,17.7798995 9.95025973,17.6534673 10.0773351,17.6476382 C9.96320445,17.6184925 9.79562656,17.5336683 9.66595822,17.6164824 L9.67582757,17.7883417 C9.57269189,17.8022111 9.56286274,17.921206 9.48684264,17.9131658 C9.52149591,17.8594975 9.44292304,17.7945729 9.36095319,17.8168844 C9.38708385,17.838794 9.41974716,17.8297487 9.41361651,17.8605025 C9.26075219,17.8888442 9.25108385,18.0074372 9.07108385,18.0582915 C9.22678234,18.0870352 9.26320445,18.1356784 9.41192807,18.1953769 C9.38587782,18.318995 9.31405872,18.2227136 9.23239038,18.2458291 C9.24324465,18.2283417 9.26022958,18.2233166 9.23339541,18.2020101 L9.15070194,18.2681407 C8.9570135,18.2357789 9.15659139,18.0924623 8.99544566,18.0508543 C8.89470989,17.9741458 8.86286293,18.0805129 8.80046189,18.0827209 C8.77522291,18.0516633 8.754597,18.0434284 8.74720445,18.0844235 C8.7550703,18.0910933 8.76260819,18.0967053 8.76992152,18.1016242 C8.77427676,18.101873 8.77898936,18.102033 8.78409528,18.1020998 C8.74871252,18.0625251 8.70364611,18.0821775 8.71806178,18.1134743 C8.62805157,18.135337 8.53711844,18.1443787 8.51992807,18.2281407 C8.5051542,18.1889447 8.43371701,18.2492462 8.40406877,18.280402 C8.35529056,18.319417 8.24513315,18.4273577 8.15039053,18.3294628 C8.17029996,18.3309148 8.19020841,18.3314152 8.21033542,18.329877 L8.21033542,18.329877 C8.2389023,18.3481226 8.26823955,18.3546623 8.29954616,18.3005025 C8.27533723,18.3099744 8.25101462,18.3146685 8.22670257,18.3184527 C8.19920498,18.2993254 8.17186125,18.2864966 8.14310916,18.3214926 C8.13928454,18.3170664 8.13548878,18.3122869 8.13172706,18.3071357 L8.13783762,18.3053266 C8.01152606,18.3017085 7.90963661,18.2671357 7.93126475,18.2162814 L7.72634013,18.2020101 L7.73514415,18.0834171 C7.55542556,18.1350754 7.5811341,18.201206 7.4690537,18.3350754 C7.33023963,18.280402 7.10726475,18.3622111 7.02577732,18.4154774 C7.01076224,18.4126633 6.98867179,18.4146734 6.9529934,18.4249246 L7.03456124,18.4619095 C6.89134515,18.4731658 6.91578737,18.5328643 6.82175722,18.5443216 C6.8316756,18.5483504 6.83767559,18.5519213 6.83528776,18.5531996 C6.81904804,18.5457952 6.80138428,18.5396504 6.78280244,18.5348744 L6.78640881,18.5467204 C6.77165224,18.5466395 6.75551384,18.5461683 6.73639038,18.5447236 C6.73966676,18.5316583 6.76095319,18.5308543 6.78280244,18.5348744 L6.7610336,18.4976884 C6.66202586,18.4129884 6.61662483,18.512703 6.54300106,18.5498278 C6.53318221,18.5454179 6.52167238,18.5433166 6.50977732,18.5433166 C6.51787531,18.5460462 6.5260975,18.5502247 6.53402014,18.5539688 C6.5144022,18.5621549 6.4926863,18.5655137 6.46746576,18.559799 C6.47860144,18.5539698 6.4972145,18.5439196 6.50977732,18.5433166 C6.43765671,18.52 6.31948586,18.3670352 6.30312405,18.4711558 C6.28575722,18.4603015 6.26402857,18.4830151 6.24352606,18.5109548 C6.24352606,18.5109548 6.19082254,18.5935678 6.18382757,18.5690452 L6.00625973,18.5696482 C5.97098335,18.5569849 5.92770696,18.5768844 5.8932547,18.5977889 L5.85759641,18.5535678 C5.85697218,18.5537154 5.85635374,18.5538586 5.85574105,18.5539977 C5.84996328,18.4989842 5.81960801,18.5133488 5.80046357,18.5498237 C5.79312747,18.5427713 5.79366385,18.5325305 5.79655118,18.5256281 C5.55397832,18.3857286 5.46477229,18.6538693 5.20684264,18.5392965 C5.17156626,18.6259296 5.27518435,18.6498492 5.28830998,18.6920603 C5.25884264,18.758392 5.1292949,18.8311558 5.06664164,18.8840201 C4.94603862,18.7865327 4.60623963,18.7322613 4.6371542,18.5650251 C4.43815923,18.5790955 4.71186777,18.6552764 4.62051098,18.7240201 L4.5970336,18.720804 C4.66766676,18.7304523 4.72818938,18.7782915 4.77458134,18.8345729 C4.80095319,18.918995 4.63062154,18.9674372 4.57417933,18.9497487 L4.59486274,18.8217085 C4.41904365,18.8890452 4.48205872,19.0689447 4.38623963,19.2076382 C4.23546576,19.1786935 4.30302355,19.0560804 4.2572949,18.9499497 L4.10985772,19.001809 L4.09689289,18.9091457 C4.00175722,18.9479397 3.99104365,19.0373869 3.84945571,19.0201005 C3.93518503,18.9196302 3.63598821,18.9624677 3.74970133,18.8292811 C3.79645578,18.8492548 3.83667629,18.860169 3.84738536,18.8030862 C3.78666174,18.6706385 3.72388787,18.8096268 3.62895319,18.7951829 C3.66152811,18.7886623 3.70250226,18.808559 3.74030693,18.8251993 L3.74030693,18.8251993 Z M20.3915039,18.0162817 C20.3898306,18.0186808 20.3881941,18.0211514 20.3866038,18.0236994 C20.3881807,18.0208572 20.3898155,18.0183946 20.3915039,18.0162817 L20.3915039,18.0162817 Z M20.433272,18.0130241 L20.4030315,18.0072304 C20.4122365,18.0035749 20.4224825,18.0066437 20.433272,18.0130241 L20.433272,18.0130241 Z M21.020582,18.024343 C21.0478149,18.0314125 21.0749764,18.0325832 21.0937371,18.0243216 C20.9811743,18.118392 21.0869029,18.239799 21.0233854,18.3242211 C20.9457974,18.2972864 20.9576567,18.280201 20.9423803,18.2263317 L20.9628828,18.2363819 C21.0015061,18.1846714 21.0374682,18.1247237 21.0260934,18.0657961 C20.9890068,18.0451695 20.9569007,18.0126209 20.9395663,17.9726633 C20.9592678,17.989541 20.9834469,17.9979798 21.008223,17.9984017 C21.0125144,18.0067423 21.016625,18.0153384 21.020582,18.024343 L21.020582,18.024343 Z M3.48750159,19.596549 C3.49151208,19.6006698 3.49544571,19.6057347 3.49930495,19.6115823 C3.47272119,19.6652769 3.44113977,19.6979147 3.39930495,19.6789637 C3.43146172,19.5853992 3.4599391,19.5706498 3.48535417,19.5944405 C3.5413234,19.5452912 3.56983563,19.4489133 3.63992807,19.479397 C3.69592807,19.4842211 3.73180747,19.4842211 3.75868184,19.4822111 C3.76816928,19.4944724 3.77653108,19.5081407 3.78455118,19.5254271 C3.73255118,19.5390955 3.67592807,19.6229146 3.62398837,19.5861307 L3.64282254,19.6092462 C3.59521154,19.8065173 3.55296959,19.6442186 3.48750159,19.596549 L3.48750159,19.596549 Z M0.526461545,19.8803297 C0.508079987,20.0684461 0.558074963,19.9231747 0.622613065,19.8739698 L0.526461545,19.8803297 Z M0.606923044,19.9089842 L0.706923044,19.9039842 C0.674170431,19.8429842 0.640128619,19.8609842 0.606923044,19.9089842 Z M1.13019943,19.8140704 C1.03088284,19.918593 0.865315004,19.8440201 0.825375305,19.9835176 C0.957596411,20.0251256 1.12943561,19.9537688 1.13019943,19.8140704 Z M0.935304954,19.7764824 L0.936759317,19.8460302 L1.03530495,19.718995 L0.935304954,19.7764824 Z M0.846601436,19.7342714 L0.867485858,19.7547739 L1.01427983,19.6488442 L0.846601436,19.7342714 Z M1.54024968,19.7788945 L1.4251341,19.8211055 C1.29528485,19.7531658 1.47409892,19.6840201 1.38720445,19.638191 C1.23799842,19.6695477 1.37452103,19.8371859 1.18388787,19.8468342 C1.21653108,19.9278392 1.47914415,19.7841206 1.47667179,19.9246231 C1.64014917,19.9362814 1.46839038,19.8438191 1.54024968,19.7788945 Z M10.7533552,17.7945764 C10.7874601,17.8290793 10.8210217,17.8460384 10.8533552,17.8559799 C10.8421601,17.8167986 10.8284143,17.7811261 10.8109839,17.7559799 L10.7533552,17.7945764 Z M12.9965311,17.4435176 C13.0318423,17.4246497 13.0662835,17.3954044 13.0965311,17.3435176 C13.0375304,17.3538949 13.0095358,17.389744 12.9965311,17.4435176 Z M10.0773351,17.6486888 C10.1151613,17.6826888 10.149221,17.7076888 10.1773351,17.6946888 C10.1424145,17.6516888 10.1093233,17.6436888 10.0773351,17.6486888 Z M4.12485118,19.5031156 L4.10455118,19.5091156 C4.13675118,19.5871156 4.14435118,19.5681156 4.12485118,19.5031156 Z M29.9066014,18.8257286 C29.8589632,18.8365829 29.8374557,18.7841206 29.7956467,18.7646231 C29.6856969,18.879397 29.9954457,18.7887437 29.8430838,18.8852261 C29.8860989,18.8892462 29.9216768,18.8761809 29.9552447,18.8617085 L29.9064004,18.7372864 C29.8165512,18.7740704 29.9590637,18.7833166 29.9066014,18.8257286 Z M28.4319281,18.6949019 C28.3953139,18.6701933 28.362243,18.649286 28.3319281,18.6255276 C28.3783848,18.7424185 28.4079123,18.7443192 28.4319281,18.6949019 Z M13.0119482,18.8850251 C12.9755295,18.9172526 12.9399859,18.9523237 12.9119482,18.9850251 C12.9688987,18.964172 12.9958593,18.9276792 13.0119482,18.8850251 Z M29.9732447,18.9200955 L29.9842447,18.8590955 L29.9552447,18.8720955 L29.9732447,18.9200955 Z M1.71034013,19.2906533 L1.75233008,19.2637186 L1.65106375,19.2255276 C1.51060144,19.3157789 1.51860144,19.3965829 1.49946576,19.4958794 C1.61791802,19.3839196 1.7092346,19.4110553 1.87836023,19.3541709 L1.71034013,19.2906533 Z M1.89922455,19.8876382 C1.91864164,19.9153305 1.96692304,19.9845613 1.99034013,19.9876382 L2.00240043,19.9117408 L1.89922455,19.8876382 Z M3.713114,19.881019 L3.56338536,19.8422111 C3.52577732,19.9184604 3.70340546,20.0023619 3.713114,19.881019 Z M2.93088284,18.9944418 L2.86483259,19.0730419 C2.94051098,19.1134099 3.03078234,19.0924784 3.03526475,19.0177228 C2.94997832,19.071974 3.00692304,18.9820537 2.93088284,18.9944418 Z M4.09771701,19.8475377 C4.12660144,19.7004344 4.24740546,19.8840616 4.26213912,19.7475377 C4.2289733,19.7928777 4.0890537,19.7069835 4.09771701,19.8475377 Z M4.06549591,18.7445226 C3.9849934,18.7240201 3.9289733,18.6570854 3.83852103,18.6761809 C3.86227983,18.7294472 3.90394817,18.8048241 4.00865169,18.7770854 L3.98366676,18.8749749 C4.09200847,18.9288442 3.92760646,18.7577889 4.06549591,18.7445226 Z M5.2652949,19.5676382 L5.21423963,19.5308543 C5.11823963,19.6186935 4.97775722,19.599196 4.93379742,19.7246231 C5.06024968,19.7011055 5.21210897,19.6309548 5.2652949,19.5676382 Z M4.46219943,18.8649246 L4.45902355,18.7334673 C4.35025973,18.7294472 4.47259139,18.7754774 4.43874214,18.8112563 C4.40591802,18.7967839 4.35872204,18.7915578 4.33978737,18.8190955 C4.45807882,18.7835176 4.36183762,18.9224121 4.46219943,18.8649246 Z M4.79200847,18.6755779 L4.9209733,18.6022111 L4.79570696,18.4745729 C4.64234013,18.5451256 4.79878234,18.5561809 4.79200847,18.6755779 Z M4.97082254,18.7396985 L4.9892547,18.7624121 L5.16893309,18.5447236 C5.05743561,18.640603 5.04841048,18.6295477 4.97082254,18.7396985 Z M7.54533206,19.2849232 C7.56235763,19.225462 7.43289364,19.1686755 7.49198118,19.2258735 C7.47389023,19.2754588 7.64424837,19.3310108 7.54533206,19.2849232 Z M6.93807882,18.2996985 C7.0011341,18.3348744 7.18330495,18.2341709 7.26274214,18.1865327 C7.16605872,18.2245226 6.91544566,18.2259296 6.93807882,18.2996985 Z M7.36274214,18.1674372 C7.34303954,18.1874372 7.30598873,18.2224372 7.26274214,18.2624372 C7.30865292,18.2344372 7.34105689,18.2054372 7.36274214,18.1674372 Z M10.794521,17.5893266 C10.8312015,17.5763266 10.8662223,17.5523266 10.894521,17.5053266 C10.8604132,17.5373266 10.8297078,17.5563266 10.794521,17.5893266 Z M10.7131542,17.5622111 C10.6544808,17.5493467 10.5443502,17.5931658 10.5304406,17.6552764 C10.6174557,17.6184925 10.6952045,17.5939698 10.794521,17.5222111 C10.7556668,17.5324623 10.7034055,17.4944724 10.7131542,17.5622111 Z M11.5366839,17.518593 C11.4932037,17.5656805 11.4270546,17.5497432 11.4484927,17.6132511 C11.4773602,17.6398133 11.5715711,17.560851 11.5366839,17.518593 Z M17.0923301,18.7644194 C17.1713251,18.7922791 17.2155462,18.7644194 17.1902195,18.6747739 C17.1033854,18.6815141 17.1536366,18.7327401 17.0923301,18.7644194 Z M17.288913,18.6518593 L17.3078889,18.6918593 L17.388913,18.7518593 L17.288913,18.6518593 Z M17.9904205,18.7495477 L17.8822798,18.6305528 C17.7793653,18.6966834 18.0060989,18.6884422 17.9084105,18.8255276 L17.9904205,18.7495477 Z M18.3435864,18.6978894 C18.4426818,18.7334673 18.5739381,18.5320603 18.6358477,18.6761809 C18.9080085,18.5869347 18.5610738,18.4343719 18.8744406,18.3650251 C18.5725311,18.3023116 18.7353452,18.6544724 18.4670034,18.5845226 C18.5990637,18.6699497 18.3845914,18.6605025 18.3435864,18.6978894 Z M18.2850939,18.456391 C18.2726316,18.5373015 18.3966517,18.5383978 18.4328326,18.4827033 C18.3964507,18.475906 18.329516,18.3669289 18.2850939,18.456391 Z M18.8790637,18.6076382 L18.9658979,18.7076382 L18.9859984,18.6171802 L18.8790637,18.6076382 Z M19.1999897,18.6235176 L19.1214758,18.7235176 C19.1472445,18.6844267 19.2704509,18.6866994 19.1999897,18.6235176 Z M19.648913,18.7123618 C19.7271039,18.7380905 19.7896165,18.5390955 19.6282095,18.5879397 L19.6657974,18.5935678 C19.6573552,18.6247236 19.7476065,18.6910553 19.648913,18.7123618 Z M20.6682095,18.3681469 C20.6147421,18.3638123 20.5528326,18.4062295 20.5650939,18.4678427 L20.7096165,18.3997276 L20.6682095,18.3681469 Z M20.6322296,17.9305054 C20.5793653,17.7171639 20.4953452,17.9551357 20.3968527,17.8899379 C20.5080085,17.9257967 20.4953452,17.9551357 20.6322296,17.9305054 Z M20.8396668,18.5334673 C20.8016768,18.6239846 20.7399683,18.5703984 20.7031844,18.557726 C20.7230838,18.6793812 20.8225813,18.642088 20.8396668,18.5334673 Z M21.0706215,18.4856281 C21.1194658,18.5330653 21.0619783,18.5531658 21.0987622,18.5849246 C21.2022798,18.6365829 21.3090135,18.6267337 21.3654959,18.559196 C21.3373552,18.5089447 21.2971542,18.3714573 21.3377572,18.3097487 C21.1755462,18.3561809 21.0981592,18.5807035 21.0141391,18.4120603 L20.8836869,18.6247236 C21.0149431,18.6544724 20.9797673,18.4757789 21.0706215,18.4856281 Z M20.729516,18.0984925 L20.8191643,18.1658291 C20.7996668,18.0984925 20.8657974,18.0844221 20.9116266,18.0613065 C20.8844909,17.9093467 20.7791643,18.0882412 20.729516,18.0984925 Z M21.9727321,18.4274372 L22.1574557,18.3435944 L22.0969532,18.3274372 L21.9727321,18.4274372 Z M22.0923301,18.4278189 L22.0979582,18.4807035 L22.2382597,18.3807035 L22.0923301,18.4278189 Z M22.287305,18.4788593 L22.2651944,18.4621106 L22.1568527,18.5621106 L22.287305,18.4788593 Z M22.6736366,18.5185358 L22.6388627,18.43312 C22.5922296,18.4567111 22.4973552,18.3609912 22.5076065,18.478404 C22.5478075,18.4380009 22.6452949,18.4504744 22.6736366,18.5185358 Z M23.9574954,16.8506533 C23.9142365,16.8930653 23.9401919,16.9308543 23.9658928,16.9694472 L24.0343437,16.8598995 C24.0139865,16.8653266 23.9740356,16.8763819 23.9574954,16.8506533 Z M24.1791643,17.0293467 L24.3192648,16.9051256 C24.1584607,16.8852261 24.1357472,16.9837186 23.9956467,17.0026131 C24.0549431,17.0422111 24.1381592,16.9529648 24.2129331,16.9873367 L24.1791643,17.0293467 Z M26.971124,17.1831156 C26.9552447,17.2631156 26.9870034,17.2528643 26.8814758,17.3007035 C27.0253954,17.2564824 27.1468024,17.279598 27.3100185,17.2749749 C27.2846919,17.2229146 27.41032,17.1411055 27.3468024,17.159799 L27.1628828,17.200402 L27.1924306,17.1463317 C27.0674055,17.079397 27.1053954,17.2325628 26.971124,17.1831156 Z M34.0059365,19.0838191 C33.9514773,19.1139698 33.9637866,19.1545729 33.9749768,19.1951759 C34.1805041,19.1933668 33.9652786,19.0838191 34.0059365,19.0838191 Z" id="Fill-4"></path>
                                        <path d="M10.6245025,12.7860704 C10.6245025,14.0504121 10.2982111,14.662191 9.44172864,14.662191 C8.29975879,14.662191 6.95384925,12.9084422 5.77107538,10.7468342 C4.60870352,8.62601005 3.79300503,6.34205025 3.34438191,5.42440201 C3.26279397,5.26126633 3.14046231,4.97575879 2.85495477,4.97575879 C2.38592965,4.97575879 2.22279397,6.15851256 2.22279397,8.68719598 C2.22279397,12.7656884 2.81417085,13.7853266 2.81417085,14.2339497 C2.81417085,14.9069146 2.24317588,15.151598 1.75376884,15.151598 C0.326291457,15.151598 8.8817842e-16,13.561005 8.8817842e-16,10.4613467 C8.8817842e-16,7.66755779 0.265105528,1.18275377 2.9161407,1.18275377 C3.65025126,1.18275377 4.09889447,1.71296482 4.95537688,3.9561407 C7.03541709,9.40092462 7.97346734,10.4001608 8.21817085,10.4001608 C8.66681407,10.4001608 8.66681407,9.27857286 8.68721608,8.42209045 C8.70759799,7.99384925 8.728,5.95459296 9.11545729,3.99692462 C9.40094472,2.54904523 9.91075377,1.22353769 10.6245025,0.652542714 C11.0527437,0.305869347 12.3986332,-0.0408040201 12.3986332,1.06040201 C12.3986332,1.36629146 12.2966834,1.61099497 12.0723618,2.03923618 C10.7264523,4.64948744 10.6245025,10.9303719 10.6245025,12.7860704 Z M14.4378894,9.64564824 C14.4378894,9.70681407 14.4582915,9.768 14.5398794,9.768 C15.0088241,9.768 16.844201,9.03386935 16.844201,7.40245226 C16.844201,6.8518593 16.4160603,6.8518593 16.4160603,6.8518593 C15.5595779,6.8518593 14.4378894,8.60560804 14.4378894,9.64564824 Z M16.5382714,13.561005 C17.1501307,13.561005 17.3947538,13.8872764 17.4355578,14.2951357 C17.4355578,14.2951357 17.3947538,15.172 16.3547538,15.172 C15.2128442,15.172 13.4182714,14.9272764 12.6841407,12.5617688 C12.5413869,12.0927437 12.4802211,11.378995 12.4802211,11.378995 C12.4598191,11.2770452 12.3578492,11.2770452 12.3578492,11.2770452 C11.2362814,11.1750754 11.2362814,10.0535075 11.2362814,10.0535075 C11.3382312,9.31935678 11.8072563,9.31935678 11.8072563,9.31935678 C11.8684422,9.31935678 12.1131658,9.40092462 12.4802211,9.46211055 C12.4802211,9.46211055 12.5617889,9.46211055 12.582191,9.40092462 C13.7649447,5.01654271 16.762593,5.01654271 16.762593,5.01654271 C17.4355578,5.01654271 18.7203819,5.36321608 18.7203819,7.13734673 C18.7203819,9.27857286 16.803397,11.4197789 14.4990754,11.4197789 C14.5806834,13.0511759 15.845005,13.561005 16.5382714,13.561005 Z M21.5139497,14.4582513 C19.882593,14.4582513 19.4745528,10.3593568 19.5153568,9.17662312 C19.5153568,9.17662312 19.5561608,7.83071357 19.8212864,6.93342714 C20.1067136,5.97499497 20.9020905,5.99537688 20.9020905,5.99537688 C21.7790754,5.99537688 21.7585729,6.89266332 21.7585729,6.89266332 C21.4731457,7.99384925 21.4323417,9.23778894 21.4323417,9.23778894 C21.4118392,9.768 21.5139497,11.6033166 22.1461106,11.6033166 C22.5131457,11.6033166 22.7169648,11.3382111 23.9201809,8.54444221 C23.9814874,7.78990955 24.2261106,7.09658291 25.1845025,7.09658291 C25.5515377,7.09658291 25.9593769,7.23931658 26.0001809,7.93266332 C26.285809,11.929608 27.203397,11.929608 27.203397,11.929608 C27.8558593,11.929608 28.6104322,10.6856482 28.6920402,8.34052261 C28.7328442,7.21893467 28.5288241,7.15774874 28.5493266,6.52558794 C28.5696281,5.87302513 28.8755578,5.22046231 29.7931457,5.22046231 C30.5682211,5.22046231 30.7720402,6.15851256 30.7312362,7.58598995 C30.5885226,11.5013668 28.5696281,14.6825729 26.9382714,14.6825729 C26.9382714,14.6825729 25.164201,14.6825729 24.5320402,11.1546734 C24.4912362,10.9099698 24.3077186,10.9915578 24.2669146,11.1342915 C23.7774673,12.6229548 22.7374673,14.4582513 21.5139497,14.4582513 Z M32.6888241,10.7468342 C32.1382714,10.7468342 32.0566633,10.4001608 32.0566633,10.1554573 C32.0769648,9.52327638 32.6072161,7.83071357 32.3828945,4.03768844 C32.3828945,4.03768844 32.3828945,1.73334673 32.1993769,0.856482412 C32.1382714,0.570974874 32.3012864,0 33.402593,0 C34.605608,0 34.5853065,1.08080402 34.6261106,3.40552764 C34.6464121,4.91457286 34.483397,7.15774874 33.9326432,9.93113568 C33.8918392,10.0942714 33.8715377,10.7468342 32.6888241,10.7468342 Z M31.2817889,14.1727638 C31.2817889,13.5813869 31.8526432,12.5821508 32.9334472,12.5821508 C33.4636985,12.5821508 33.9123417,12.9084422 33.9123417,13.6629548 C33.9123417,14.6825729 32.7499296,15.192402 32.2401809,15.192402 C31.9953568,15.192402 31.2817889,15.0904523 31.2817889,14.1727638 L31.2817889,14.1727638 Z" id="Fill-79"></path>
                                    </g>
                                </g>
                            </g>
                        </g>
                    </g>
                </g>
            </g>
        </g>
    </g>
</svg>