<?xml version="1.0" encoding="UTF-8" standalone="no"?>
<svg width="134px" height="69px" viewBox="0 0 134 69" version="1.1" xmlns="http://www.w3.org/2000/svg" xmlns:xlink="http://www.w3.org/1999/xlink" xmlns:sketch="http://www.bohemiancoding.com/sketch/ns">
    <!-- Generator: Sketch 3.3.2 (12043) - http://www.bohemiancoding.com/sketch -->
    <title>footer-logo</title>
    <desc>Created with Sketch.</desc>
    <defs></defs>
    <g id="ASDA.com---All-sizes" stroke="none" stroke-width="1" fill="none" fill-rule="evenodd" sketch:type="MSPage">
        <g id="footer-logo" sketch:type="MSArtboardGroup" fill="#FFFFFF">
            <g id="footer-logo-copy" sketch:type="MSLayerGroup">
                <path d="M3.46334586,66.4701531 C5.15363856,66.4701531 6.34017186,65.6410491 6.34017186,64.1633548 L6.34017186,64.142065 C6.34017186,62.8448845 5.4447995,62.3030433 3.85555854,61.9096312 C2.50110544,61.5800886 2.16526584,61.4205648 2.16526584,60.9314984 L2.16526584,60.9102086 C2.16526584,60.549181 2.51190029,60.2616183 3.17248478,60.2616183 C3.83276942,60.2616183 4.51584318,60.5377864 5.20971178,60.9953679 L6.105384,59.7620569 C5.31076352,59.1563462 4.33682868,58.8163086 3.19497404,58.8163086 C1.59463838,58.8163086 0.452783745,59.7089823 0.452783745,61.0595372 L0.452783745,61.0802274 C0.452783745,62.5582214 1.47139724,62.9729234 3.04924364,63.3549409 C4.35931794,63.6745883 4.62798962,63.8871867 4.62798962,64.3015888 L4.62798962,64.3231785 C4.62798962,64.7585705 4.2027927,65.0242436 3.49752954,65.0242436 C2.60155747,65.0242436 1.86331006,64.6737111 1.15774705,64.1213749 L0.139433405,65.2797216 C1.07948443,66.0770408 2.27681257,66.4701531 3.46334586,66.4701531 L3.46334586,66.4701531 Z M9.16212406,66.4701531 C9.9903285,66.4701531 10.560956,66.1828903 10.975358,65.7468985 L10.975358,66.3640038 L12.6203724,66.3640038 L12.6203724,63.057483 C12.6203724,62.2925483 12.4188686,61.6649481 11.9714823,61.2397512 C11.5465852,60.8358441 10.8746062,60.6022556 9.94534998,60.6022556 C8.92703634,60.6022556 8.2778464,60.7827694 7.6172619,61.0595372 L8.04275868,62.2925483 C8.59119674,62.10064 9.05027748,61.9839957 9.69946742,61.9839957 C10.5498613,61.9839957 10.9864527,62.3564178 10.9864527,63.025998 L10.9864527,63.1213525 C10.560956,62.9831185 10.1249642,62.8874642 9.52045292,62.8874642 C8.0988319,62.8874642 7.10240781,63.4613901 7.10240781,64.7057957 L7.10240781,64.7264859 C7.10240781,65.8536475 8.03136412,66.4701531 9.16212406,66.4701531 L9.16212406,66.4701531 Z M9.67697816,65.354386 C9.1285401,65.354386 8.74772198,65.0983083 8.74772198,64.6632161 L8.74772198,64.6416264 C8.74772198,64.13157 9.19600788,63.855102 9.92316058,63.855102 C10.3375627,63.855102 10.7180809,63.9399615 11.0086421,64.0674006 L11.0086421,64.3543636 C11.0086421,64.939684 10.4715986,65.354386 9.67697816,65.354386 L9.67697816,65.354386 Z M15.4315297,66.4068833 L16.976092,66.4068833 L19.3377641,60.6655254 L17.5695086,60.6655254 L16.2147556,64.4821026 L14.8713972,60.6655254 L13.0698577,60.6655254 L15.4315297,66.4068833 L15.4315297,66.4068833 Z M22.6508817,66.4914429 C23.7363632,66.4914429 24.542978,66.0872359 25.1016112,65.4284506 L24.128276,64.6098416 C23.6581006,65.0242436 23.2439984,65.1945623 22.6730711,65.1945623 C21.9120346,65.1945623 21.3746912,64.8116452 21.2067714,64.0778956 L25.3819773,64.0778956 C25.3933718,63.9291667 25.4038668,63.7804377 25.4038668,63.6529986 C25.4038668,62.0367705 24.486305,60.559676 22.4829619,60.559676 C20.736596,60.559676 19.5167786,61.8985365 19.5167786,63.5255594 L19.5167786,63.5471491 C19.5167786,65.2902166 20.8487424,66.4914429 22.6508817,66.4914429 L22.6508817,66.4914429 Z M21.184582,63.0682778 C21.318618,62.3348281 21.7773989,61.8565566 22.4829619,61.8565566 C23.1990199,61.8565566 23.6473058,62.3459228 23.7480576,63.0682778 L21.184582,63.0682778 L21.184582,63.0682778 Z M29.6909193,66.3640038 L31.3923067,66.3640038 L31.3923067,63.185222 C31.3923067,62.4196876 31.7845193,62.0262755 32.4226146,62.0262755 C33.0601101,62.0262755 33.4181391,62.4196876 33.4181391,63.185222 L33.4181391,66.3640038 L35.1195265,66.3640038 L35.1195265,63.185222 C35.1195265,62.4196876 35.5117392,62.0262755 36.1492347,62.0262755 C36.7876298,62.0262755 37.1456588,62.4196876 37.1456588,63.185222 L37.1456588,66.3640038 L38.8470462,66.3640038 L38.8470462,62.6538758 C38.8470462,61.2823308 38.08541,60.559676 36.820614,60.559676 C36.004104,60.559676 35.3768036,60.8781239 34.8514545,61.4628446 C34.5378043,60.8889187 33.9443878,60.559676 33.1605621,60.559676 C32.2990736,60.559676 31.7845193,60.9953679 31.3923067,61.4736395 L31.3923067,60.6655254 L29.6909193,60.6655254 L29.6909193,66.3640038 L29.6909193,66.3640038 Z M43.0948174,66.4914429 C44.9644245,66.4914429 46.3515619,65.1621778 46.3515619,63.5255594 L46.3515619,63.5045695 C46.3515619,61.8667517 44.9752193,60.559676 43.1170068,60.559676 C41.2476996,60.559676 39.8599624,61.8883414 39.8599624,63.5255594 L39.8599624,63.5471491 C39.8599624,65.1840673 41.2369048,66.4914429 43.0948174,66.4914429 L43.0948174,66.4914429 Z M43.1170068,65.0983083 C42.1763561,65.0983083 41.5391604,64.3654583 41.5391604,63.5255594 L41.5391604,63.5045695 C41.5391604,62.6646706 42.1208826,61.9522109 43.0948174,61.9522109 C44.0354681,61.9522109 44.6729637,62.6853607 44.6729637,63.5255594 L44.6729637,63.5471491 C44.6729637,64.3861484 44.0915414,65.0983083 43.1170068,65.0983083 L43.1170068,65.0983083 Z M47.396263,66.3640038 L49.0979502,66.3640038 L49.0979502,63.185222 C49.0979502,62.4196876 49.5117526,62.0262755 50.1606427,62.0262755 C50.8101325,62.0262755 51.1906507,62.4196876 51.1906507,63.185222 L51.1906507,66.3640038 L52.8920381,66.3640038 L52.8920381,62.6748657 C52.8920381,61.3674902 52.1420963,60.559676 50.8548111,60.559676 C49.992423,60.559676 49.4892633,60.9953679 49.0979502,61.4736395 L49.0979502,60.6655254 L47.396263,60.6655254 L47.396263,66.3640038 L47.396263,66.3640038 Z M57.0423559,66.4914429 C58.1278375,66.4914429 58.9338525,66.0872359 59.4936851,65.4284506 L58.5197503,64.6098416 C58.0495748,65.0242436 57.6357725,65.1945623 57.0648451,65.1945623 C56.3038086,65.1945623 55.7661654,64.8116452 55.5985455,64.0778956 L59.7734515,64.0778956 C59.7842463,63.9291667 59.7959407,63.7804377 59.7959407,63.6529986 C59.7959407,62.0367705 58.8780791,60.559676 56.8744361,60.559676 C55.1286699,60.559676 53.9082528,61.8985365 53.9082528,63.5255594 L53.9082528,63.5471491 C53.9082528,65.2902166 55.2402166,66.4914429 57.0423559,66.4914429 L57.0423559,66.4914429 Z M55.5760562,63.0682778 C55.7103921,62.3348281 56.1694728,61.8565566 56.8744361,61.8565566 C57.5907939,61.8565566 58.0381803,62.3459228 58.139232,63.0682778 L55.5760562,63.0682778 L55.5760562,63.0682778 Z M61.9609067,68.0968761 C62.9789205,68.0968761 63.4712854,67.6611842 63.9303661,66.5028375 L66.2365646,60.6655254 L64.4677095,60.6655254 L63.157935,64.5459721 L61.7923872,60.6655254 L59.9905478,60.6655254 L62.3408253,66.3849937 C62.1956946,66.6722565 62.0391694,66.757116 61.7474087,66.757116 C61.5243153,66.757116 61.2445489,66.6614617 61.020256,66.5343224 L60.4493287,67.703464 C60.88622,67.9481472 61.3453008,68.0968761 61.9609067,68.0968761 L61.9609067,68.0968761 Z M66.4047843,66.3640038 L68.218618,66.3640038 L68.218618,64.6632161 L66.4047843,64.6632161 L66.4047843,66.3640038 Z M72.8744943,66.3640038 L78.5046053,66.3640038 L78.5046053,64.8761144 L74.5986708,64.8761144 L74.5986708,58.9221581 L72.8744943,58.9221581 L72.8744943,66.3640038 L72.8744943,66.3640038 Z M79.340606,60.0388247 L81.1319504,60.0388247 L81.1319504,58.6034103 L79.340606,58.6034103 L79.340606,60.0388247 Z M79.3858844,66.3640038 L81.0872718,66.3640038 L81.0872718,60.6655254 L79.3858844,60.6655254 L79.3858844,66.3640038 Z M84.18959,66.4068833 L85.7344522,66.4068833 L88.0958244,60.6655254 L86.3278688,60.6655254 L84.972816,64.4821026 L83.6303571,60.6655254 L81.827918,60.6655254 L84.18959,66.4068833 L84.18959,66.4068833 Z M91.408942,66.4914429 C92.4944236,66.4914429 93.3007385,66.0872359 93.8602712,65.4284506 L92.8869361,64.6098416 C92.4164608,65.0242436 92.0020587,65.1945623 91.4314313,65.1945623 C90.669795,65.1945623 90.1333512,64.8116452 89.9651316,64.0778956 L94.1403375,64.0778956 C94.1520319,63.9291667 94.1628267,63.7804377 94.1628267,63.6529986 C94.1628267,62.0367705 93.2446652,60.559676 91.2413221,60.559676 C89.4955559,60.559676 88.274539,61.8985365 88.274539,63.5255594 L88.274539,63.5471491 C88.274539,65.2902166 89.6071026,66.4914429 91.408942,66.4914429 L91.408942,66.4914429 Z M89.9426423,63.0682778 C90.0769782,62.3348281 90.535759,61.8565566 91.2413221,61.8565566 C91.9576799,61.8565566 92.405666,62.3459228 92.506118,63.0682778 L89.9426423,63.0682778 L89.9426423,63.0682778 Z M102.019974,66.4701531 C103.441295,66.4701531 104.75107,65.4284506 104.75107,63.5255594 L104.75107,63.5045695 C104.75107,61.6010786 103.419106,60.559676 102.019974,60.559676 C101.135696,60.559676 100.565369,60.9521885 100.150667,61.4844343 L100.150667,58.6037102 L98.4489796,58.6037102 L98.4489796,66.3640038 L100.150667,66.3640038 L100.150667,65.6194594 C100.553674,66.0770408 101.113207,66.4701531 102.019974,66.4701531 L102.019974,66.4701531 Z M101.583383,65.0983083 C100.788462,65.0983083 100.128477,64.4719074 100.128477,63.5255594 L100.128477,63.5045695 C100.128477,62.5582214 100.788462,61.9309211 101.583383,61.9309211 C102.378003,61.9309211 103.049682,62.5582214 103.049682,63.5045695 L103.049682,63.5255594 C103.049682,64.4821026 102.378003,65.0983083 101.583383,65.0983083 L101.583383,65.0983083 Z M108.654006,66.4914429 C109.739787,66.4914429 110.545802,66.0872359 111.105035,65.4284506 L110.1314,64.6098416 C109.661224,65.0242436 109.247422,65.1945623 108.676495,65.1945623 C107.915458,65.1945623 107.378115,64.8116452 107.210195,64.0778956 L111.385101,64.0778956 C111.396196,63.9291667 111.407291,63.7804377 111.407291,63.6529986 C111.407291,62.0367705 110.489429,60.559676 108.486685,60.559676 C106.74032,60.559676 105.520202,61.8985365 105.520202,63.5255594 L105.520202,63.5471491 C105.520202,65.2902166 106.851566,66.4914429 108.654006,66.4914429 L108.654006,66.4914429 Z M107.187406,63.0682778 C107.321742,62.3348281 107.780823,61.8565566 108.486685,61.8565566 C109.202144,61.8565566 109.65043,62.3459228 109.751481,63.0682778 L107.187406,63.0682778 L107.187406,63.0682778 Z M114.419652,66.4593582 C114.990279,66.4593582 115.404681,66.3325188 115.76241,66.1298156 L115.76241,64.8332349 C115.516828,64.960674 115.236462,65.0353383 114.923411,65.0353383 C114.542593,65.0353383 114.374673,64.8542248 114.374673,64.4821026 L114.374673,62.0478652 L115.7849,62.0478652 L115.7849,60.6655254 L114.374673,60.6655254 L114.374673,59.2088212 L112.672986,59.2088212 L112.672986,60.6655254 L111.957228,60.6655254 L111.957228,62.0478652 L112.672986,62.0478652 L112.672986,64.7483754 C112.672986,66.0665458 113.378849,66.4593582 114.419652,66.4593582 L114.419652,66.4593582 Z M118.961283,66.4593582 C119.53251,66.4593582 119.946612,66.3325188 120.304641,66.1298156 L120.304641,64.8332349 C120.058759,64.960674 119.778692,65.0353383 119.465342,65.0353383 C119.084824,65.0353383 118.916904,64.8542248 118.916904,64.4821026 L118.916904,62.0478652 L120.32743,62.0478652 L120.32743,60.6655254 L118.916904,60.6655254 L118.916904,59.2088212 L117.215217,59.2088212 L117.215217,60.6655254 L116.498859,60.6655254 L116.498859,62.0478652 L117.215217,62.0478652 L117.215217,64.7483754 C117.215217,66.0665458 117.921079,66.4593582 118.961283,66.4593582 L118.961283,66.4593582 Z M124.160799,66.4914429 C125.246281,66.4914429 126.052596,66.0872359 126.611829,65.4284506 L125.638194,64.6098416 C125.168018,65.0242436 124.754216,65.1945623 124.183289,65.1945623 C123.421652,65.1945623 122.884609,64.8116452 122.716989,64.0778956 L126.891895,64.0778956 C126.903289,63.9291667 126.914384,63.7804377 126.914384,63.6529986 C126.914384,62.0367705 125.996223,60.559676 123.99288,60.559676 C122.247113,60.559676 121.026396,61.8985365 121.026396,63.5255594 L121.026396,63.5471491 C121.026396,65.2902166 122.35866,66.4914429 124.160799,66.4914429 L124.160799,66.4914429 Z M122.6945,63.0682778 C122.828536,62.3348281 123.287916,61.8565566 123.99288,61.8565566 C124.708938,61.8565566 125.156924,62.3459228 125.257975,63.0682778 L122.6945,63.0682778 L122.6945,63.0682778 Z M127.974378,66.3640038 L129.675465,66.3640038 L129.675465,64.259309 C129.675465,62.8985589 130.369634,62.2496688 131.500094,62.2496688 L131.589451,62.2496688 L131.589451,60.559676 C130.582232,60.517696 130.0224,61.0277524 129.675465,61.8139769 L129.675465,60.6655254 L127.974378,60.6655254 L127.974378,66.3640038 L127.974378,66.3640038 Z M131.774163,66.3640038 L133.587397,66.3640038 L133.587397,64.6632161 L131.774163,64.6632161 L131.774163,66.3640038 Z" id="Fill-1" sketch:type="MSShapeGroup"></path>
                <path d="M35.9699203,9.20260473 C35.185495,7.95280165 33.6295381,7.51621017 32.4963793,8.22837003 C31.3620211,8.94023004 25.6599445,13.3268349 24.9531821,13.9052587 C24.2254296,14.5001745 23.958857,15.5211869 24.5090942,16.3991676 C25.0602309,17.2765485 26.0959363,17.4798514 26.948729,17.0831409 C27.7760338,16.6978249 34.2043636,13.4671679 35.3384219,12.7550081 C36.4718806,12.0428482 36.7549454,10.4527077 35.9699203,9.20260473 M21.2289608,11.9348997 C21.3087227,11.0254341 21.7252238,3.84326441 21.6757474,2.50530344 C21.6256713,1.16734246 20.3899615,0.127139277 18.9152658,0.181713212 C17.4402703,0.23688686 16.2840226,1.3655478 16.3337988,2.70350877 C16.3838749,4.04116989 17.3311224,11.1729637 17.4780523,12.0743332 C17.6297798,13.00209 18.3812209,13.7439357 19.4169262,13.7052542 C20.4523317,13.6665727 21.1462003,12.8713525 21.2289608,11.9348997 M14.3076665,25.02035 C15.0360186,24.4248344 15.3022914,23.4035222 14.7514545,22.5258414 C14.2003178,21.6481606 13.1649123,21.4451575 12.3121196,21.8421679 C11.4845149,22.227184 5.05618511,25.4581409 3.92272646,26.1703008 C2.78836824,26.881561 2.50560329,28.4723013 3.29062836,29.7224042 C4.07535356,30.9725072 5.63071071,31.4084989 6.76446921,30.6966389 C7.89852757,29.9847789 13.6012039,25.5984739 14.3076665,25.02035 M14.5376566,16.768891 C15.0225251,15.8528285 14.6806883,14.8543054 13.9106561,14.3142633 C13.1628133,13.7901137 7.1509846,9.83860097 5.96774973,9.21279986 C4.784215,8.58669889 3.26544039,9.13693609 2.57517007,10.441613 C1.88549946,11.7465897 2.2849087,13.3115422 3.46844343,13.9376432 C4.65197816,14.5637442 11.3019021,17.3092329 12.1555943,17.6318788 C13.0353741,17.96442 14.0530881,17.6849535 14.5376566,16.768891" id="Fill-2" sketch:type="MSShapeGroup"></path>
                <path d="M115.732125,19.1734425 L103.374727,19.1734425 L96.3286923,39.5433136 C96.6438417,37.8512218 96.6996151,36.4991676 96.6996151,35.9111484 C96.6996151,27.3781239 91.8032537,19.1734425 80.3010473,19.1734425 L67.0914563,19.1734425 L67.1304377,39.4356651 C65.9882832,33.6790145 60.7221984,32.1359515 54.1733262,30.1485007 C51.7255952,29.3946608 50.381937,28.1988319 50.8722028,27.0836645 C51.2914026,26.111229 52.791886,25.8056749 54.6129162,26.0563552 C57.3919889,26.454565 59.6106293,27.3832214 61.7474087,28.5430675 L64.6668144,21.3180183 C64.0077291,20.9941729 59.2780881,18.159027 53.3502193,18.159027 C45.0840673,18.159027 39.804189,22.1867034 39.804189,28.1301647 C39.804189,33.4274347 43.070529,36.5069638 49.0769603,38.2332393 C55.5358754,40.1043457 57.1736932,40.8569862 56.9799857,42.7127999 C56.811766,44.3116362 52.8083781,46.2595059 43.0129565,40.2404807 L40.1025465,46.2553079 L31.1182376,19.1734425 L18.7659372,19.1734425 L7.09161296,52.8392633 L16.8276629,52.8392633 L18.3464375,48.0709407 L30.6222744,48.0709407 L32.0750806,52.8392633 L42.2965986,52.8392633 L41.1373523,49.5459363 C44.5938015,51.5411833 48.8787549,53.3664116 54.0042069,53.3664116 C61.8586556,53.3664116 66.1031284,49.083857 67.1157447,44.9785177 L67.1157447,52.8392633 L80.2881534,52.8392633 C88.1390038,52.8392633 92.2467419,49.0994495 94.392517,45.0987603 L91.6980039,52.8392633 L101.427457,52.8392633 L103.007702,48.0709407 L115.271245,48.0709407 L116.682971,52.8392633 L126.917083,52.8392633 L115.732125,19.1734425 L115.732125,19.1734425 Z M20.8409461,40.2440789 L24.5195892,28.2330156 L28.1298648,40.2440789 L20.8409461,40.2440789 L20.8409461,40.2440789 Z M79.2551468,44.15721 L77.0407044,44.15721 L77.0407044,27.7094656 L79.2266604,27.7094656 C82.5367794,27.7094656 86.2208199,29.0792114 86.2208199,35.8946563 C86.2208199,41.9316729 82.9583781,44.15721 79.2551468,44.15721 L79.2551468,44.15721 Z M105.585271,40.2440789 L109.191049,28.37035 L112.784833,40.2440789 L105.585271,40.2440789 L105.585271,40.2440789 Z" id="Fill-3" sketch:type="MSShapeGroup"></path>
            </g>
        </g>
    </g>
</svg>