<?xml version="1.0" encoding="utf-8"?>
<!-- Generator: Adobe Illustrator 18.1.1, SVG Export Plug-In . SVG Version: 6.00 Build 0)  -->
<svg version="1.1" id="Layer_1" xmlns:sketch="http://www.bohemiancoding.com/sketch/ns"
	 xmlns="http://www.w3.org/2000/svg" xmlns:xlink="http://www.w3.org/1999/xlink" x="0px" y="0px" viewBox="-257 403.9 80 35"
	 enable-background="new -257 403.9 80 35" xml:space="preserve">
<g id="ASDA.com---Small">
				<path id="Fill-1" fill="#FFCD00" d="M-249,414.7c0.3-0.6,0.1-1.2-0.4-1.6c-0.5-0.3-4.3-2.9-5.1-3.3c-0.8-0.4-1.7,0-2.2,0.8
					c-0.4,0.8-0.2,1.8,0.6,2.2c0.8,0.4,5,2.2,5.6,2.4C-250,415.4-249.4,415.2-249,414.7 M-249.2,419.9c0.5-0.4,0.6-1,0.3-1.6
					c-0.4-0.6-1-0.7-1.6-0.4c-0.5,0.2-4.6,2.3-5.4,2.8c-0.7,0.5-0.9,1.5-0.4,2.3c0.5,0.8,1.5,1.1,2.2,0.6
					C-253.3,423.1-249.6,420.3-249.2,419.9 M-244.8,411.6c0.1-0.6,0.3-5.2,0.3-6s-0.8-1.5-1.8-1.5c-0.9,0-1.7,0.8-1.7,1.6
					c0,0.9,0.6,5.4,0.7,6c0.1,0.6,0.6,1.1,1.2,1C-245.3,412.7-244.8,412.2-244.8,411.6 M-235.3,409.8c-0.5-0.8-1.5-1.1-2.2-0.6
					c-0.7,0.5-4.4,3.3-4.8,3.6c-0.5,0.4-0.6,1-0.3,1.6c0.4,0.6,1,0.7,1.6,0.4c0.5-0.2,4.6-2.3,5.4-2.8
					C-235,411.6-234.8,410.6-235.3,409.8"/>
				<path id="Fill-2" fill="#78BE20" d="M-190.7,429.7l2.3-7.6l2.3,7.6H-190.7L-190.7,429.7z M-207.6,432.2h-1.4v-10.5h1.4
					c2.1,0,4.5,0.9,4.5,5.2C-203.1,430.8-205.2,432.2-207.6,432.2L-207.6,432.2z M-245,429.7l2.4-7.7l2.3,7.7H-245L-245,429.7z
					 M-184.2,416.2h-7.9l-4.5,13.1c0.2-1.1,0.2-2,0.2-2.3c0-5.5-3.1-10.7-10.5-10.7h-8.5l0,13c-0.7-3.7-4.1-4.7-8.3-6
					c-1.6-0.5-2.4-1.2-2.1-2c0.3-0.6,1.2-0.8,2.4-0.7c1.8,0.3,3.2,0.9,4.6,1.6l1.9-4.6c-0.4-0.2-3.5-2-7.3-2c-5.3,0-8.7,2.6-8.7,6.4
					c0,3.4,2.1,5.4,5.9,6.5c4.1,1.2,5.2,1.7,5.1,2.9c-0.1,1-2.7,2.3-9-1.6l-1.9,3.9l-5.8-17.4h-7.9l-7.5,21.6h6.2l1-3.1h7.9l0.9,3.1
					h6.5l-0.7-2.1c2.2,1.3,5,2.4,8.2,2.4c5,0,7.8-2.7,8.4-5.4v5h8.4c5,0,7.7-2.4,9-5l-1.7,5h6.2l1-3.1h7.9l0.9,3.1h6.6L-184.2,416.2
					L-184.2,416.2z"/>
</g>
</svg>
