<?xml version="1.0" encoding="UTF-8" standalone="no"?>
<svg width="165px" height="76px" viewBox="0 0 165 76" version="1.1" xmlns="http://www.w3.org/2000/svg" xmlns:xlink="http://www.w3.org/1999/xlink" xmlns:sketch="http://www.bohemiancoding.com/sketch/ns">
    <!-- Generator: Sketch 3.3.2 (12043) - http://www.bohemiancoding.com/sketch -->
    <title>social</title>
    <desc>Created with Sketch.</desc>
    <defs></defs>
    <g id="ASDA.com---All-sizes" stroke="none" stroke-width="1" fill="none" fill-rule="evenodd" sketch:type="MSPage">
        <g id="social" sketch:type="MSArtboardGroup">
            <path d="M21.249375,17.5065625 L18.7971875,17.5065625 L18.7971875,26.25 L15.16375,26.25 L15.16375,17.5065625 L13.435625,17.5065625 L13.435625,14.4178125 L15.16375,14.4178125 L15.16375,12.4184375 C15.16375,10.9867187 15.8429688,8.75 18.83,8.75 L21.5217187,8.7609375 L21.5217187,11.76 L19.5682812,11.76 C19.25,11.76 18.7971875,11.9175 18.7971875,12.6010937 L18.7971875,14.4178125 L21.5676562,14.4178125 L21.249375,17.5065625 L21.249375,17.5065625 Z M17.5,0 C7.835625,0 0,7.835625 0,17.5 C0,27.1665625 7.835625,35 17.5,35 C27.1654687,35 35,27.1665625 35,17.5 C35,7.835625 27.1654687,0 17.5,0 L17.5,0 Z" id="Fill-488-Copy-7" fill="#FFFFFF" sketch:type="MSShapeGroup"></path>
            <path d="M21.249375,57.5065625 L18.7971875,57.5065625 L18.7971875,66.25 L15.16375,66.25 L15.16375,57.5065625 L13.435625,57.5065625 L13.435625,54.4178125 L15.16375,54.4178125 L15.16375,52.4184375 C15.16375,50.9867187 15.8429688,48.75 18.83,48.75 L21.5217187,48.7609375 L21.5217187,51.76 L19.5682812,51.76 C19.25,51.76 18.7971875,51.9175 18.7971875,52.6010937 L18.7971875,54.4178125 L21.5676562,54.4178125 L21.249375,57.5065625 L21.249375,57.5065625 Z M17.5,40 C7.835625,40 0,47.835625 0,57.5 C0,67.1665625 7.835625,75 17.5,75 C27.1654687,75 35,67.1665625 35,57.5 C35,47.835625 27.1654687,40 17.5,40 L17.5,40 Z" id="Fill-488-Copy-8" fill="#78BE20" sketch:type="MSShapeGroup"></path>
            <path d="M101.5,0 C91.835625,0 84,7.835625 84,17.5 C84,27.1665625 91.835625,35 101.5,35 C111.165469,35 119,27.1665625 119,17.5 C119,7.835625 111.165469,0 101.5,0 Z M96.03125,9.42307692 L96.03125,25.5769231 L109.15625,17.3299318 L96.03125,9.42307692 Z" id="Fill-488-Copy-6" fill="#FFFFFF" sketch:type="MSShapeGroup"></path>
            <path d="M101.5,40 C91.835625,40 84,47.835625 84,57.5 C84,67.1665625 91.835625,75 101.5,75 C111.165469,75 119,67.1665625 119,57.5 C119,47.835625 111.165469,40 101.5,40 Z M96.03125,49.4230769 L96.03125,65.5769231 L109.15625,57.3299318 L96.03125,49.4230769 Z" id="Fill-488-Copy-9" fill="#78BE20" sketch:type="MSShapeGroup"></path>
            <path d="M66.4584375,13.9321875 C66.4660937,14.0864062 66.469375,14.240625 66.469375,14.3959375 C66.469375,19.140625 62.8578125,24.6115625 56.25375,24.6115625 C54.2259375,24.6115625 52.3392187,24.0176563 50.75,22.9982812 C51.0321875,23.0310937 51.3176563,23.0475 51.6064062,23.0475 C53.2896875,23.0475 54.83625,22.4754688 56.0645312,21.511875 C54.495,21.4823437 53.1682812,20.4432813 52.7121875,19.0192187 C52.9309375,19.0596875 53.1551562,19.0826562 53.3870312,19.0826562 C53.7151562,19.0826562 54.0323437,19.0378125 54.3320312,18.956875 C52.6914062,18.6254687 51.4532812,17.1751563 51.4532812,15.4360937 L51.4532812,15.39125 C51.9378125,15.6603125 52.49125,15.8210938 53.0796875,15.8396875 C52.1160937,15.1976562 51.4828125,14.0973437 51.4828125,12.8515625 C51.4828125,12.193125 51.66,11.57625 51.9684375,11.046875 C53.738125,13.2190625 56.385,14.6485937 59.36875,14.7973437 C59.3075,14.5348437 59.2757812,14.2614062 59.2757812,13.9792188 C59.2757812,11.9973437 60.8835937,10.390625 62.8665625,10.390625 C63.8979687,10.390625 64.8320312,10.8259375 65.4871875,11.5226562 C66.3042188,11.3629687 67.073125,11.0632812 67.7676562,10.6509375 C67.4985937,11.4909375 66.9298438,12.193125 66.1882813,12.6382813 C66.9145312,12.5529688 67.606875,12.3582813 68.25,12.0739062 C67.7698437,12.7935938 67.160625,13.4257813 66.4584375,13.9321875 L66.4584375,13.9321875 Z M59.5,0 C49.835625,0 42,7.835625 42,17.5 C42,27.1665625 49.835625,35 59.5,35 C69.164375,35 77,27.1665625 77,17.5 C77,7.835625 69.164375,0 59.5,0 L59.5,0 Z" id="twitter-copy-3" fill="#FFFFFF" sketch:type="MSShapeGroup"></path>
            <path d="M66.4584375,53.9321875 C66.4660937,54.0864062 66.469375,54.240625 66.469375,54.3959375 C66.469375,59.140625 62.8578125,64.6115625 56.25375,64.6115625 C54.2259375,64.6115625 52.3392187,64.0176563 50.75,62.9982812 C51.0321875,63.0310937 51.3176563,63.0475 51.6064062,63.0475 C53.2896875,63.0475 54.83625,62.4754688 56.0645312,61.511875 C54.495,61.4823437 53.1682812,60.4432812 52.7121875,59.0192187 C52.9309375,59.0596875 53.1551562,59.0826562 53.3870312,59.0826562 C53.7151562,59.0826562 54.0323437,59.0378125 54.3320312,58.956875 C52.6914062,58.6254687 51.4532812,57.1751563 51.4532812,55.4360937 L51.4532812,55.39125 C51.9378125,55.6603125 52.49125,55.8210938 53.0796875,55.8396875 C52.1160937,55.1976562 51.4828125,54.0973437 51.4828125,52.8515625 C51.4828125,52.193125 51.66,51.57625 51.9684375,51.046875 C53.738125,53.2190625 56.385,54.6485938 59.36875,54.7973437 C59.3075,54.5348437 59.2757812,54.2614062 59.2757812,53.9792188 C59.2757812,51.9973437 60.8835937,50.390625 62.8665625,50.390625 C63.8979687,50.390625 64.8320312,50.8259375 65.4871875,51.5226562 C66.3042188,51.3629687 67.073125,51.0632812 67.7676562,50.6509375 C67.4985937,51.4909375 66.9298438,52.193125 66.1882813,52.6382813 C66.9145312,52.5529688 67.606875,52.3582813 68.25,52.0739062 C67.7698437,52.7935937 67.160625,53.4257812 66.4584375,53.9321875 L66.4584375,53.9321875 Z M59.5,40 C49.835625,40 42,47.835625 42,57.5 C42,67.1665625 49.835625,75 59.5,75 C69.164375,75 77,67.1665625 77,57.5 C77,47.835625 69.164375,40 59.5,40 L59.5,40 Z" id="twitter-copy-4" fill="#78BE20" sketch:type="MSShapeGroup"></path>
            <path d="M145.306875,21.3970312 C144.221875,21.3970312 143.200312,20.8107812 142.851406,20.1446875 C142.851406,20.1446875 142.267344,22.4601562 142.144844,22.9064062 C141.708437,24.4879687 140.427656,26.0684375 140.329219,26.1964062 C140.260312,26.2860937 140.106094,26.25875 140.090781,26.1384375 C140.062344,25.9382813 139.735312,23.9454688 140.120312,22.3190625 C140.313906,21.503125 141.414219,16.8415625 141.414219,16.8415625 C141.414219,16.8415625 141.092656,16.2017187 141.092656,15.2523437 C141.092656,13.7615625 141.956719,12.6503125 143.031875,12.6503125 C143.94625,12.6503125 144.385937,13.3360937 144.385937,14.1585937 C144.385937,15.0773437 143.801875,16.4532813 143.5,17.7264062 C143.247344,18.7928125 144.03375,19.6623438 145.085937,19.6623438 C146.990156,19.6623438 148.273125,17.215625 148.273125,14.3171875 C148.273125,12.114375 146.79,10.465 144.090625,10.465 C141.042344,10.465 139.141406,12.74 139.141406,15.2807813 C139.141406,16.1557812 139.400625,16.77375 139.805312,17.2495312 C139.99125,17.4704687 140.016406,17.5601563 139.949687,17.8117187 C139.900469,17.9954688 139.791094,18.4417187 139.744062,18.6167187 C139.678437,18.87375 139.470625,18.9634375 139.240938,18.869375 C137.836562,18.2973437 137.1825,16.7584375 137.1825,15.028125 C137.1825,12.1745313 139.590937,8.75 144.367344,8.75 C148.205312,8.75 150.730781,11.5270312 150.730781,14.5096875 C150.730781,18.4504687 148.537813,21.3970312 145.306875,21.3970312 L145.306875,21.3970312 Z M143.5,0 C133.835625,0 126,7.835625 126,17.5 C126,27.1665625 133.835625,35 143.5,35 C153.164375,35 161,27.1665625 161,17.5 C161,7.835625 153.164375,0 143.5,0 L143.5,0 Z" id="Fill-507-Copy-3" fill="#FFFFFF" sketch:type="MSShapeGroup"></path>
            <path d="M145.306875,61.3970312 C144.221875,61.3970312 143.200312,60.8107812 142.851406,60.1446875 C142.851406,60.1446875 142.267344,62.4601562 142.144844,62.9064062 C141.708437,64.4879687 140.427656,66.0684375 140.329219,66.1964062 C140.260312,66.2860937 140.106094,66.25875 140.090781,66.1384375 C140.062344,65.9382813 139.735312,63.9454688 140.120312,62.3190625 C140.313906,61.503125 141.414219,56.8415625 141.414219,56.8415625 C141.414219,56.8415625 141.092656,56.2017187 141.092656,55.2523437 C141.092656,53.7615625 141.956719,52.6503125 143.031875,52.6503125 C143.94625,52.6503125 144.385937,53.3360937 144.385937,54.1585937 C144.385937,55.0773437 143.801875,56.4532813 143.5,57.7264062 C143.247344,58.7928125 144.03375,59.6623438 145.085937,59.6623438 C146.990156,59.6623438 148.273125,57.215625 148.273125,54.3171875 C148.273125,52.114375 146.79,50.465 144.090625,50.465 C141.042344,50.465 139.141406,52.74 139.141406,55.2807813 C139.141406,56.1557812 139.400625,56.77375 139.805312,57.2495312 C139.99125,57.4704687 140.016406,57.5601563 139.949687,57.8117187 C139.900469,57.9954688 139.791094,58.4417187 139.744062,58.6167187 C139.678437,58.87375 139.470625,58.9634375 139.240938,58.869375 C137.836562,58.2973437 137.1825,56.7584375 137.1825,55.028125 C137.1825,52.1745313 139.590937,48.75 144.367344,48.75 C148.205312,48.75 150.730781,51.5270312 150.730781,54.5096875 C150.730781,58.4504687 148.537813,61.3970312 145.306875,61.3970312 L145.306875,61.3970312 Z M143.5,40 C133.835625,40 126,47.835625 126,57.5 C126,67.1665625 133.835625,75 143.5,75 C153.164375,75 161,67.1665625 161,57.5 C161,47.835625 153.164375,40 143.5,40 L143.5,40 Z" id="Fill-507-Copy-4" fill="#78BE20" sketch:type="MSShapeGroup"></path>
        </g>
    </g>
</svg>